<svg width="139" height="100" viewBox="0 0 139 100" fill="none" xmlns="http://www.w3.org/2000/svg">
<g opacity="0.1">
<path d="M40.2975 100C65.1213 100 80.4633 80.8707 80.4633 49.8021C80.4633 18.5356 64.9237 0 40.2975 0C15.6054 0 0 18.6016 0 49.8681C0 81.0026 15.4079 100 40.2975 100ZM40.2975 81.1346C30.8157 81.1346 24.5604 70.3826 24.5604 49.8021C24.5604 29.3536 30.8816 18.8654 40.2975 18.8654C49.7134 18.8654 55.9029 29.2876 55.9029 49.8681C55.9029 70.4485 49.7134 81.1346 40.2975 81.1346Z" fill="#BCCAD2"/>
<path d="M114.966 97.6253H139V2.44063H114.901L90.7352 18.9314V39.7757L114.505 23.6807H114.966V97.6253Z" fill="#BCCAD2"/>
</g>
</svg>
