<svg width="165" height="100" viewBox="0 0 165 100" fill="none" xmlns="http://www.w3.org/2000/svg">
<g opacity="0.1">
<path d="M40.5705 100C65.5625 100 81.0084 80.8707 81.0084 49.8021C81.0084 18.5356 65.3636 0 40.5705 0C15.7111 0 0 18.6016 0 49.8681C0 81.0026 15.5123 100 40.5705 100ZM40.5705 81.1346C31.0245 81.1346 24.7268 70.3826 24.7268 49.8021C24.7268 29.3536 31.0908 18.8654 40.5705 18.8654C50.0502 18.8654 56.2816 29.2876 56.2816 49.8681C56.2816 70.4485 50.0502 81.1346 40.5705 81.1346Z" fill="#BCCAD2"/>
<path d="M90.687 31.7282V32.19H112.961V31.7282C112.961 23.8786 118.927 18.2718 127.147 18.2718C135.102 18.2718 140.273 23.0871 140.273 29.1557C140.273 35.0923 137.356 39.7098 129.401 47.2955L92.0791 81.4644V97.6253H165V79.0237H123.7V78.562L146.571 57.5858C154.261 50.2639 163.807 40.8311 163.807 28.3641C163.807 11.6755 149.687 0.0659631 127.943 0.0659631C105.603 0.0659631 90.687 12.9288 90.687 31.7282Z" fill="#BCCAD2"/>
</g>
</svg>
