<svg width="168" height="100" viewBox="0 0 168 100" fill="none" xmlns="http://www.w3.org/2000/svg">
<g opacity="0.1">
<path d="M40.3358 100C65.1832 100 80.5398 80.8707 80.5398 49.8021C80.5398 18.5356 64.9855 0 40.3358 0C15.6202 0 0 18.6016 0 49.8681C0 81.0026 15.4225 100 40.3358 100ZM40.3358 81.1346C30.845 81.1346 24.5838 70.3826 24.5838 49.8021C24.5838 29.3536 30.9109 18.8654 40.3358 18.8654C49.7607 18.8654 55.9561 29.2876 55.9561 49.8681C55.9561 70.4485 49.7607 81.1346 40.3358 81.1346Z" fill="#BCCAD2"/>
<path d="M117.053 57.3219H128.653C137.88 57.3219 143.482 61.8074 143.482 69.1953C143.482 76.1873 137.55 81.0026 128.916 81.0026C119.689 81.0026 113.955 76.4512 113.56 69.3272H90.492C91.4147 87.8628 106.178 100 128.521 100C152.182 100 168 88.7203 168 71.2401C168 58.1794 158.839 49.7361 144.734 48.4169V47.8892C156.334 45.8443 164.507 37.467 164.507 25.9235C164.507 10.2243 150.6 0.0659631 129.444 0.0659631C107.364 0.0659631 92.6669 12.1372 92.3374 30.4749H114.219C114.483 23.0871 120.085 18.0739 128.389 18.0739C137.089 18.0739 142.098 22.3615 142.098 29.2216C142.098 36.0818 136.76 40.6332 128.587 40.6332H117.053V57.3219Z" fill="#BCCAD2"/>
</g>
</svg>
