<svg width="23" height="18" viewBox="0 0 23 18" fill="none" xmlns="http://www.w3.org/2000/svg">
<path d="M22.1654 8.34492L13.3567 0.73489C12.9527 0.385667 12.3419 0.431517 11.994 0.834666C11.6447 1.23871 11.6893 1.84861 12.0933 2.19787L18.8453 8.03026H0.9663C0.432812 8.03026 0 8.46262 0 8.99656C0 9.5305 0.432812 9.96286 0.9663 9.96286H19.0881L15.2396 13.3979L12.2332 15.7755C11.8152 16.1067 11.7433 16.7144 12.0746 17.1333C12.2651 17.3742 12.5483 17.5 12.8337 17.5C13.0436 17.5 13.2553 17.4321 13.4328 17.2915L16.4823 14.8766L22.1767 9.7966C22.3843 9.61188 22.5021 9.34626 22.5003 9.06806C22.4976 8.78985 22.3767 8.5265 22.1654 8.34492Z" fill="#799A0D"/>
</svg>
