<svg width="106" height="105" viewBox="0 0 106 105" fill="none" xmlns="http://www.w3.org/2000/svg">
<path fill-rule="evenodd" clip-rule="evenodd" d="M53 103C80.8904 103 103.5 80.3904 103.5 52.5C103.5 24.6096 80.8904 2 53 2C25.1096 2 2.5 24.6096 2.5 52.5C2.5 80.3904 25.1096 103 53 103ZM53 105C81.9949 105 105.5 81.4949 105.5 52.5C105.5 23.5051 81.9949 0 53 0C24.0051 0 0.5 23.5051 0.5 52.5C0.5 81.4949 24.0051 105 53 105Z" fill="#799A0D"/>
<path d="M29.5093 45.4529L29.5093 67.0533C29.5093 69.3373 31.3688 71.2053 33.6613 71.2053H74.145C76.4375 71.2053 78.297 69.3458 78.297 67.0533V45.4529C78.297 43.1604 76.4375 41.3009 74.145 41.3009H33.6528C31.3687 41.3094 29.5093 43.1689 29.5093 45.4529ZM77.0234 45.4529V67.0533C77.0234 68.6411 75.7328 69.9317 74.145 69.9317H33.6528C32.065 69.9317 30.7744 68.6411 30.7744 67.0533L30.7744 45.4529C30.7744 43.8652 32.065 42.5746 33.6528 42.5746H74.145C75.7328 42.583 77.0234 43.8736 77.0234 45.4529Z" fill="#799A0D"/>
<path d="M24.5167 44.4001L26.8941 53.4936C26.979 53.8333 27.3272 54.037 27.6753 53.9521C28.0149 53.8672 28.2187 53.5191 28.1338 53.171L25.7564 44.0774C25.5611 43.3302 25.6715 42.5576 26.0535 41.8953C26.4441 41.233 27.0639 40.7575 27.8111 40.5707L66.9704 30.3055C68.5072 29.8979 70.0865 30.8234 70.4855 32.3517L72.345 39.4669C72.4299 39.8066 72.7865 40.0104 73.1261 39.9254C73.4658 39.8405 73.6695 39.4924 73.5846 39.1443L71.7167 32.0376C71.2242 30.1781 69.5431 28.9469 67.7006 28.9469C67.3524 28.9469 66.9958 28.9894 66.6477 29.0828L27.48 39.3311C26.4102 39.6113 25.5101 40.2906 24.9497 41.25C24.3894 42.2095 24.2365 43.3217 24.5167 44.4001Z" fill="#799A0D"/>
<path d="M66.9789 46.9728H73.2706C73.6187 46.9728 73.9074 46.6841 73.9074 46.3359C73.9074 45.9878 73.6187 45.6991 73.2706 45.6991H66.9789C66.6308 45.6991 66.3421 45.9878 66.3421 46.3359C66.3421 46.6841 66.6308 46.9728 66.9789 46.9728Z" fill="#799A0D"/>
<path d="M56.1698 46.9728H62.4615C62.8096 46.9728 63.0983 46.6841 63.0983 46.3359C63.0983 45.9878 62.8096 45.6991 62.4615 45.6991H56.1698C55.8217 45.6991 55.533 45.9878 55.533 46.3359C55.533 46.6841 55.8132 46.9728 56.1698 46.9728Z" fill="#799A0D"/>
<path d="M45.3533 46.9728H51.6449C51.993 46.9728 52.2817 46.6841 52.2817 46.3359C52.2817 45.9878 51.993 45.6991 51.6449 45.6991H45.3533C45.0052 45.6991 44.7165 45.9878 44.7165 46.3359C44.7165 46.6841 45.0052 46.9728 45.3533 46.9728Z" fill="#799A0D"/>
<path d="M34.5359 46.9728H40.8275C41.1756 46.9728 41.4643 46.6841 41.4643 46.3359C41.4643 45.9878 41.1756 45.6991 40.8275 45.6991H34.5359C34.1878 45.6991 33.8991 45.9878 33.8991 46.3359C33.8991 46.6841 34.1878 46.9728 34.5359 46.9728Z" fill="#799A0D"/>
<path d="M73.2706 65.542H60.8656C60.5175 65.542 60.2288 65.8307 60.2288 66.1788C60.2288 66.5269 60.5175 66.8156 60.8656 66.8156L73.2706 66.8156C73.6187 66.8156 73.9074 66.5269 73.9074 66.1788C73.9074 65.8307 73.6187 65.542 73.2706 65.542Z" fill="#799A0D"/>
<path d="M54.9051 62.757H73.2706C73.6187 62.757 73.9074 62.4683 73.9074 62.1202C73.9074 61.7721 73.6187 61.4834 73.2706 61.4834H54.9051C54.557 61.4834 54.2683 61.7721 54.2683 62.1202C54.2683 62.4683 54.557 62.757 54.9051 62.757Z" fill="#799A0D"/>
<path d="M33.8992 59.9551V64.4212C33.8992 65.7373 34.969 66.8156 36.2935 66.8156H43.5956C44.9116 66.8156 45.9899 65.7458 45.9899 64.4212L45.99 59.9721C45.99 58.656 44.9201 57.5777 43.5956 57.5777L36.2935 57.5777C34.9775 57.5607 33.8992 58.639 33.8992 59.9551ZM36.2935 58.8343H41.1587V61.5513H35.1728L35.1728 59.9551C35.1728 59.3353 35.6822 58.8343 36.2935 58.8343ZM35.1728 64.4212L35.1728 62.8249H37.4483V65.542H36.285C35.6822 65.542 35.1728 65.0325 35.1728 64.4212ZM43.5956 65.542H38.7304V62.8249H44.7163V64.4212C44.7163 65.0325 44.2154 65.542 43.5956 65.542ZM44.7163 59.9551V61.5513H42.4408V58.8343H43.6041C44.2154 58.8343 44.7163 59.3353 44.7163 59.9551Z" fill="#799A0D"/>
<path fill-rule="evenodd" clip-rule="evenodd" d="M74.145 40.9509C76.6308 40.9509 78.647 42.9671 78.647 45.4529V67.0533C78.647 69.5391 76.6308 71.5553 74.145 71.5553H33.6612C31.175 71.5553 29.1593 69.5301 29.1593 67.0533L29.1593 45.4529C29.1593 42.9753 31.1754 40.9601 33.6514 40.9509L33.6527 40.9509H74.145ZM77.947 45.4529C77.947 43.3537 76.2442 41.6509 74.145 41.6509H33.654C33.6538 41.6509 33.6543 41.6509 33.654 41.6509C31.5624 41.6591 29.8593 43.3627 29.8593 45.4529L29.8593 67.0533C29.8593 69.1445 31.5625 70.8553 33.6612 70.8553H74.145C76.2442 70.8553 77.947 69.1525 77.947 67.0533V45.4529ZM74.1432 42.9245C74.1428 42.9245 74.1435 42.9245 74.1432 42.9245L33.6527 42.9245C32.2583 42.9245 31.1244 44.0584 31.1244 45.4529L31.1244 67.0533C31.1244 68.4478 32.2583 69.5816 33.6527 69.5816H74.145C75.5395 69.5816 76.6734 68.4478 76.6734 67.0533V45.4529C76.6734 44.0682 75.5397 42.9325 74.1432 42.9245ZM74.1469 42.2245C75.9255 42.234 77.3734 43.6793 77.3734 45.4529V67.0533C77.3734 68.8344 75.9261 70.2816 74.145 70.2816L33.6527 70.2817C31.8717 70.2817 30.4244 68.8344 30.4244 67.0533L30.4244 45.4529C30.4244 43.6718 31.8717 42.2245 33.6527 42.2245H74.145L74.1469 42.2245ZM67.7006 28.5969C69.6977 28.5969 71.5208 29.931 72.055 31.9479L73.9247 39.0613C74.0532 39.5882 73.7456 40.1313 73.211 40.265C72.6931 40.3945 72.1407 40.0882 72.0059 39.5538L70.1469 32.4402C69.7968 31.0994 68.4095 30.2859 67.0601 30.6437L27.8999 40.9093L27.896 40.9103C27.2435 41.0734 26.7005 41.488 26.3558 42.0717C26.0196 42.6553 25.9235 43.3329 26.095 43.9889L28.4738 53.088C28.6023 53.6149 28.2947 54.158 27.7602 54.2917L27.7582 54.2921C27.232 54.4205 26.6895 54.1138 26.555 53.5804C26.5549 53.5798 26.5547 53.5791 26.5546 53.5785L24.1781 44.4886C23.8747 43.321 24.0403 42.1131 24.6475 41.0735C25.255 40.0334 26.2321 39.2961 27.3913 38.9925L66.557 28.7447C66.5574 28.7446 66.5577 28.7445 66.5581 28.7444C66.9378 28.6427 67.3247 28.5969 67.7006 28.5969ZM71.3783 32.1269C70.9274 30.425 69.3883 29.2969 67.7006 29.2969C67.3806 29.2969 67.0546 29.336 66.7384 29.4208L66.7363 29.4214L27.5687 39.6696C27.5686 39.6697 27.5687 39.6696 27.5687 39.6696C26.5883 39.9264 25.7653 40.5477 25.252 41.4265C24.7385 42.3057 24.5985 43.3227 24.8554 44.3116C24.8553 44.3115 24.8554 44.3117 24.8554 44.3116L27.2327 53.4051L27.2337 53.4087C27.2698 53.5531 27.4224 53.653 27.5914 53.6123C27.7349 53.5759 27.8341 53.4242 27.7943 53.2561C27.7941 53.2554 27.7939 53.2546 27.7937 53.2539L25.4177 44.1659C25.1988 43.3281 25.3231 42.4609 25.7504 41.7204L25.7521 41.7175C26.1882 40.9779 26.8838 40.4423 27.7242 40.2317C27.7249 40.2315 27.7256 40.2313 27.7262 40.2312L66.8806 29.9671C66.8805 29.9672 66.8808 29.9671 66.8806 29.9671M70.8242 32.2633L72.6836 39.3784L72.6845 39.382C72.7204 39.5257 72.8806 39.626 73.0412 39.5859C73.1852 39.5499 73.2849 39.3981 73.2452 39.2297L71.3783 32.1269C71.3782 32.1268 71.3783 32.127 71.3783 32.1269M73.2705 45.3491C73.812 45.3491 74.2573 45.7945 74.2573 46.3359C74.2573 46.8773 73.812 47.3227 73.2705 47.3227H66.9789C66.4375 47.3227 65.9921 46.8773 65.9921 46.3359C65.9921 45.7945 66.4375 45.3491 66.9789 45.3491H73.2705ZM73.5574 46.3359C73.5574 46.1811 73.4254 46.0491 73.2705 46.0491H66.9789C66.8241 46.0491 66.6921 46.1811 66.6921 46.3359C66.6921 46.4907 66.8241 46.6227 66.9789 46.6227H73.2705C73.4254 46.6227 73.5574 46.4907 73.5574 46.3359ZM73.2705 61.1334C73.812 61.1334 74.2573 61.5788 74.2573 62.1202C74.2573 62.6616 73.812 63.107 73.2705 63.107H54.9051C54.3637 63.107 53.9183 62.6616 53.9183 62.1202C53.9183 61.5788 54.3637 61.1334 54.9051 61.1334H73.2705ZM73.5574 62.1202C73.5574 61.9654 73.4254 61.8334 73.2705 61.8334L54.9051 61.8334C54.7503 61.8334 54.6183 61.9654 54.6183 62.1202C54.6183 62.275 54.7503 62.407 54.9051 62.407L73.2705 62.407C73.4254 62.407 73.5574 62.275 73.5574 62.1202ZM73.2705 65.1919C73.812 65.1919 74.2573 65.6373 74.2573 66.1787C74.2573 66.7202 73.812 67.1656 73.2705 67.1656H60.8656C60.3242 67.1656 59.8788 66.7202 59.8788 66.1787C59.8788 65.6373 60.3242 65.1919 60.8656 65.1919H73.2705ZM73.5574 66.1787C73.5574 66.0239 73.4254 65.8919 73.2705 65.8919H60.8656C60.7108 65.8919 60.5788 66.0239 60.5788 66.1787C60.5788 66.3336 60.7108 66.4656 60.8656 66.4656H73.2705C73.4254 66.4656 73.5574 66.3336 73.5574 66.1787ZM62.4614 45.3491C63.0029 45.3491 63.4483 45.7945 63.4483 46.3359C63.4483 46.8773 63.0029 47.3227 62.4615 47.3227H56.1698C55.6169 47.3227 55.183 46.8743 55.183 46.3359C55.183 45.7945 55.6284 45.3491 56.1698 45.3491L62.4614 45.3491ZM62.7483 46.3359C62.7483 46.1811 62.6163 46.0491 62.4614 46.0491H56.1698C56.015 46.0491 55.883 46.1811 55.883 46.3359C55.883 46.4938 56.0095 46.6227 56.1698 46.6227H62.4615C62.6163 46.6227 62.7483 46.4907 62.7483 46.3359ZM51.6449 45.3491C52.1863 45.3491 52.6317 45.7945 52.6317 46.3359C52.6317 46.8773 52.1863 47.3227 51.6449 47.3227H45.3533C44.8118 47.3227 44.3665 46.8773 44.3665 46.3359C44.3665 45.7945 44.8118 45.3491 45.3533 45.3491H51.6449ZM51.9317 46.3359C51.9317 46.1811 51.7997 46.0491 51.6449 46.0491H45.3533C45.1984 46.0491 45.0665 46.1811 45.0665 46.3359C45.0665 46.4907 45.1984 46.6227 45.3533 46.6227H51.6449C51.7997 46.6227 51.9317 46.4907 51.9317 46.3359ZM43.5956 57.2276C45.1142 57.2276 46.3399 58.4635 46.3399 59.972V64.4212C46.3399 65.9398 45.1041 67.1656 43.5956 67.1656H36.2935C34.7749 67.1656 33.5491 65.9297 33.5491 64.4212V59.9551C33.5491 58.4473 34.7831 57.2094 36.2958 57.2276C36.2966 57.2277 36.2973 57.2277 36.298 57.2277L43.5956 57.2276ZM45.6399 59.972C45.6399 58.8485 44.726 57.9276 43.5956 57.9276H36.2935L36.289 57.9276C35.1706 57.9132 34.2491 58.8314 34.2491 59.9551L34.2491 64.4212C34.2491 65.5447 35.1631 66.4656 36.2935 66.4656L43.5956 66.4656C44.7191 66.4656 45.6399 65.5516 45.6399 64.4212V59.972ZM40.8275 45.3491C41.3689 45.3491 41.8143 45.7945 41.8143 46.3359C41.8143 46.8773 41.3689 47.3227 40.8275 47.3227H34.5359C33.9945 47.3227 33.5491 46.8773 33.5491 46.3359C33.5491 45.7945 33.9945 45.3491 34.5359 45.3491H40.8275ZM41.1143 46.3359C41.1143 46.1811 40.9823 46.0491 40.8275 46.0491H34.5359C34.3811 46.0491 34.2491 46.1811 34.2491 46.3359C34.2491 46.4907 34.3811 46.6227 34.5359 46.6227L40.8275 46.6227C40.9823 46.6227 41.1143 46.4907 41.1143 46.3359ZM44.3663 59.955C44.3663 59.5268 44.0203 59.1843 43.604 59.1843H42.7908L42.7908 61.2013L44.3663 61.2013V59.955ZM43.604 58.4843C44.4104 58.4843 45.0663 59.1437 45.0663 59.955V61.9013H42.0908V58.4843L43.604 58.4843ZM45.0663 62.4749V64.4212C45.0663 65.2241 44.4104 65.892 43.5956 65.892H38.3804V62.4749H45.0663ZM44.3663 63.1749L39.0804 63.1749V65.1919H43.5956C44.0204 65.1919 44.3663 64.8409 44.3663 64.4212V63.1749ZM41.5087 58.4843V61.9013L34.8228 61.9013V59.955C34.8228 59.1402 35.4906 58.4843 36.2935 58.4843H41.5087ZM40.8087 59.1843H36.2935C35.8738 59.1843 35.5228 59.5302 35.5228 59.955V61.2013H40.8087V59.1843ZM37.7983 62.4749L37.7983 65.8919L36.285 65.892C35.4872 65.892 34.8228 65.2241 34.8227 64.4212L34.8228 62.4749H37.7983ZM37.0983 63.1749L35.5227 63.1749L35.5228 64.4212C35.5228 64.8409 35.8772 65.1919 36.285 65.1919H37.0983V63.1749Z" fill="#799A0D"/>
</svg>
