<svg width="106" height="105" viewBox="0 0 106 105" fill="none" xmlns="http://www.w3.org/2000/svg">
<path fill-rule="evenodd" clip-rule="evenodd" d="M53 103C80.8904 103 103.5 80.3904 103.5 52.5C103.5 24.6096 80.8904 2 53 2C25.1096 2 2.5 24.6096 2.5 52.5C2.5 80.3904 25.1096 103 53 103ZM53 105C81.9949 105 105.5 81.4949 105.5 52.5C105.5 23.5051 81.9949 0 53 0C24.0051 0 0.5 23.5051 0.5 52.5C0.5 81.4949 24.0051 105 53 105Z" fill="#799A0D"/>
<path d="M54.4821 55.9481L43.2991 48.2032L53.4707 39.8243L64.6536 47.5762L54.4821 55.9481ZM45.6663 48.1106L54.4032 54.1455L62.2936 47.6546L53.5424 41.6126L45.6663 48.1106Z" fill="#799A0D"/>
<path d="M60.4858 67.8112C60.3371 67.8123 60.1917 67.7675 60.0698 67.6829L27.7906 43.515C27.7044 43.4508 27.6338 43.3681 27.5841 43.2732C27.5344 43.1782 27.5069 43.0733 27.5037 42.9663C27.5014 42.8593 27.5234 42.7531 27.5681 42.6556C27.6128 42.5582 27.679 42.472 27.7619 42.4035L45.0994 28.1535C45.226 28.0541 45.3827 28 45.5441 28C45.7055 28 45.8622 28.0541 45.9889 28.1535L78.268 52.3001C78.3531 52.3668 78.4219 52.4517 78.4691 52.5486C78.5164 52.6455 78.541 52.7517 78.541 52.8594C78.541 52.967 78.5164 53.0733 78.4691 53.1702C78.4219 53.267 78.3531 53.352 78.268 53.4187L60.9449 67.6829C60.8111 67.7764 60.6491 67.8217 60.4858 67.8112ZM29.3543 42.9236L60.4643 66.1867L76.6684 52.8487L45.5585 29.5856L29.3543 42.9236Z" fill="#799A0D"/>
<path d="M60.4856 73.0765C60.3304 73.0765 60.1794 73.0265 60.0552 72.934L27.7904 48.7874C27.6382 48.674 27.5376 48.5053 27.5107 48.3182C27.4838 48.1311 27.5328 47.9411 27.647 47.7899C27.7611 47.6388 27.931 47.5388 28.1194 47.5121C28.3077 47.4854 28.499 47.5341 28.6512 47.6474L60.4641 71.4592L77.364 57.5441C77.4366 57.4842 77.5203 57.4391 77.6104 57.4113C77.7004 57.3836 77.7952 57.3737 77.8891 57.3823C77.983 57.3909 78.0743 57.4178 78.1577 57.4614C78.2412 57.5051 78.3152 57.5646 78.3755 57.6367C78.4357 57.7087 78.4812 57.7919 78.5091 57.8813C78.537 57.9708 78.547 58.0649 78.5383 58.1582C78.5296 58.2515 78.5026 58.3421 78.4586 58.425C78.4147 58.5079 78.3547 58.5814 78.2822 58.6413L60.9447 72.8913C60.8187 73.0052 60.656 73.0709 60.4856 73.0765Z" fill="#799A0D"/>
<path d="M60.4856 78C60.3304 78 60.1794 77.95 60.0552 77.8575L27.7904 53.7109C27.714 53.6547 27.6496 53.584 27.601 53.5029C27.5524 53.4218 27.5205 53.3319 27.5071 53.2384C27.4938 53.1449 27.4992 53.0497 27.5233 52.9584C27.5473 52.867 27.5893 52.7813 27.6469 52.7063C27.7621 52.5562 27.9326 52.4577 28.1209 52.4323C28.3091 52.4069 28.4999 52.4567 28.6512 52.5709L60.4641 76.3755L77.364 62.4675C77.4365 62.4075 77.5202 62.3623 77.6103 62.3345C77.7004 62.3067 77.7951 62.2968 77.8891 62.3054C77.983 62.314 78.0743 62.3409 78.1578 62.3846C78.2413 62.4283 78.3152 62.488 78.3754 62.5601C78.4358 62.6321 78.4813 62.7153 78.5093 62.8048C78.5373 62.8942 78.5473 62.9883 78.5386 63.0817C78.53 63.175 78.5029 63.2657 78.4589 63.3486C78.4149 63.4315 78.3548 63.5049 78.2822 63.5648L60.9447 77.8147C60.8187 77.9287 60.6559 77.9944 60.4856 78Z" fill="#799A0D"/>
<path fill-rule="evenodd" clip-rule="evenodd" d="M45.3181 28.4268L27.9849 42.6732C27.9427 42.7082 27.9088 42.7523 27.8862 42.8016C27.8638 42.8505 27.8526 42.9037 27.8536 42.9572C27.8554 43.0107 27.8693 43.0633 27.8943 43.111C27.9195 43.1592 27.9554 43.2013 27.9995 43.2342L28.0004 43.2348L60.2736 67.3983C60.3352 67.4397 60.4083 67.4618 60.4832 67.4612L60.4957 67.4611L60.5083 67.4619C60.5886 67.4671 60.6682 67.4461 60.7348 67.4025L78.0521 53.1432C78.0956 53.1091 78.1306 53.0658 78.1546 53.0167C78.1786 52.9676 78.191 52.9138 78.191 52.8594C78.191 52.805 78.1786 52.7512 78.1546 52.7021C78.1311 52.654 78.097 52.6114 78.0547 52.5776L45.7727 28.4289C45.7079 28.378 45.6274 28.35 45.5441 28.35C45.462 28.35 45.3825 28.3772 45.3181 28.4268ZM44.8833 27.8782C45.0718 27.7303 45.3046 27.65 45.5441 27.65C45.7822 27.65 46.0136 27.7293 46.2015 27.8754L78.484 52.0246C78.6106 52.1238 78.7131 52.2505 78.7837 52.3951C78.8543 52.5398 78.891 52.6985 78.891 52.8594C78.891 53.0203 78.8543 53.1791 78.7837 53.3237C78.7138 53.4669 78.6126 53.5925 78.4876 53.6913L61.1567 67.9619L61.1454 67.9699C60.9497 68.1066 60.714 68.1737 60.4759 68.1612C60.2595 68.1603 60.0483 68.094 59.8703 67.9706L59.8599 67.9633L27.5817 43.7958C27.4535 43.7003 27.348 43.577 27.274 43.4354C27.1998 43.2936 27.1587 43.137 27.1538 42.9771L27.1537 42.9739C27.1503 42.8139 27.1832 42.6552 27.25 42.5097C27.3167 42.3642 27.4155 42.2357 27.5389 42.1337L27.5397 42.1331L44.8833 27.8782ZM45.5481 29.1408L77.2352 52.8355L60.4747 66.6315L28.7876 42.9368L45.5481 29.1408ZM45.5689 30.0304L29.9211 42.9104L60.4539 65.7419L76.1016 52.8619L45.5689 30.0304ZM53.4525 39.3858L65.2334 47.5523L54.5003 56.3865L42.7193 48.2275L53.4525 39.3858ZM53.4889 40.2628L43.879 48.1791L54.4639 55.5098L64.0738 47.6002L53.4889 40.2628ZM53.5236 41.1744L62.8743 47.6302L54.4216 54.5836L45.0863 48.1354L53.5236 41.1744ZM53.5612 42.0509L46.2463 48.0859L54.3848 53.7074L61.713 47.6791L53.5612 42.0509ZM28.4416 47.9278C28.3638 47.8699 28.2655 47.8449 28.1686 47.8587C28.0714 47.8724 27.9844 47.9239 27.9263 48.0009C27.8682 48.0777 27.8436 48.174 27.8572 48.2684C27.8708 48.3629 27.9217 48.4488 27.9995 48.5068L60.2644 72.6534C60.3264 72.6996 60.4019 72.7253 60.4799 72.7265C60.5656 72.7224 60.647 72.6887 60.71 72.6317L60.7161 72.6262L78.0594 58.3714C78.0965 58.3408 78.1271 58.3032 78.1494 58.2611C78.1717 58.219 78.1854 58.1731 78.1898 58.1258C78.1942 58.0786 78.1892 58.031 78.175 57.9857C78.1609 57.9403 78.1378 57.8981 78.107 57.8613C78.0763 57.8246 78.0384 57.794 77.9955 57.7716C77.9527 57.7492 77.9056 57.7353 77.8572 57.7309C77.8087 57.7264 77.7598 57.7315 77.7134 57.7458C77.667 57.7601 77.624 57.7833 77.5869 57.814L60.4744 71.9041L28.4416 47.9278ZM28.0702 47.1656C28.3497 47.1259 28.6339 47.1981 28.8603 47.3668L60.4538 71.0143L77.1412 57.2742C77.2492 57.1851 77.3736 57.1181 77.5073 57.0768C77.6411 57.0356 77.7816 57.021 77.921 57.0338C78.0604 57.0465 78.1959 57.0865 78.3199 57.1513C78.444 57.2162 78.5541 57.3048 78.6439 57.4121C78.7337 57.5194 78.8015 57.6434 78.8432 57.777C78.8849 57.9107 78.8997 58.0512 78.8868 58.1905C78.8739 58.3299 78.8334 58.4653 78.7679 58.589C78.7023 58.7126 78.613 58.8221 78.5051 58.9112L61.1727 73.157C60.9861 73.3229 60.7469 73.4181 60.4972 73.4264L60.4856 73.4268C60.2553 73.4268 60.0309 73.3524 59.8462 73.2147L27.5814 49.0681C27.3552 48.8994 27.2045 48.6475 27.1643 48.368C27.1241 48.0884 27.1974 47.8045 27.3677 47.5791C27.5378 47.3537 27.7907 47.2053 28.0702 47.1656ZM28.4404 52.8503C28.3629 52.7919 28.2648 52.7661 28.1676 52.7792C28.0705 52.7923 27.9832 52.843 27.9246 52.9194C27.8952 52.9576 27.8739 53.0011 27.8618 53.0474C27.8496 53.0936 27.8469 53.1417 27.8536 53.1889C27.8604 53.2362 27.8765 53.2817 27.9012 53.3229C27.9259 53.3641 27.9587 53.4002 27.9978 53.429L28.0001 53.4307L60.2643 77.5768C60.3264 77.6231 60.4018 77.6488 60.4798 77.65C60.5656 77.6458 60.6469 77.6122 60.7099 77.5552L60.7161 77.5496L78.0597 63.2946C78.0968 63.264 78.1274 63.2266 78.1497 63.1845C78.1721 63.1424 78.1858 63.0965 78.1901 63.0493C78.1945 63.0022 78.1895 62.9546 78.1753 62.9093C78.1611 62.864 78.1381 62.8218 78.1073 62.7851C78.0766 62.7483 78.0382 62.7171 77.9954 62.6947C77.9526 62.6723 77.9056 62.6584 77.8572 62.654C77.8087 62.6495 77.7599 62.6546 77.7135 62.6689C77.6672 62.6833 77.6243 62.7065 77.5872 62.7372L60.4744 76.8203L28.4415 52.8512L28.4404 52.8503ZM28.8613 52.291C28.6363 52.1215 28.3533 52.0478 28.0741 52.0854C27.7947 52.1231 27.5411 52.2694 27.3693 52.4931" fill="#799A0D"/>
</svg>
