<svg width="95" height="66" viewBox="0 0 95 66" fill="none" xmlns="http://www.w3.org/2000/svg">
<path d="M34.5765 36.6484C34.8393 36.9738 34.7915 37.4525 34.4692 37.7179L18.8977 50.5449C18.758 50.6601 18.5895 50.7161 18.4222 50.7161C18.2038 50.7161 17.9871 50.6207 17.8382 50.4366C17.5754 50.1113 17.6232 49.6326 17.9455 49.3671L33.517 36.5401C33.839 36.2747 34.3135 36.3233 34.5765 36.6484ZM93.7457 31.8069C95.0462 33.5693 95.2403 35.9691 94.2405 37.9209L91.7824 42.7196C92.421 44.4361 92.5221 46.3482 92.0008 48.1673L89.516 56.839C88.9102 58.9536 87.0173 60.3777 84.8595 60.3777C84.7731 60.3777 84.6867 60.3754 84.5993 60.3708L67.0931 59.4464C65.3649 59.3551 63.6983 58.669 62.4001 57.5144L59.9933 55.3741H41.1468L32.9543 63.7672C31.5564 65.1994 29.6279 65.9998 27.6548 66C27.3368 66 27.0179 65.9793 26.6997 65.9369L9.19051 63.6131C6.37289 63.2391 4.37851 60.6205 4.74486 57.7758L5.90169 48.7912L3.69326 48.1416C1.36812 47.4577 -0.146014 45.2764 0.0111795 42.8369L0.47184 35.6867C0.591006 33.8383 1.26345 32.1 2.4167 30.6594L11.6881 19.0755C12.7498 17.7489 14.3894 17.0365 16.0744 17.168L19.2665 17.4191L24.138 5.78865C24.8328 4.12991 25.9752 2.71136 27.4413 1.68654C29.161 0.484624 31.2578 -0.10864 33.345 0.0163974L51.0547 1.0758C53.6483 1.23086 56.0734 2.48922 57.708 4.52745L65.3894 14.1048L80.7352 17.5249L80.7459 17.5272C82.6462 17.9508 84.333 19.0514 85.4956 20.6271L93.7457 31.8069ZM92.5379 32.7153L89.1709 28.1527L76.7444 28.0051L83.6242 34.1152L93.1378 36.669C93.5912 35.3487 93.3767 33.8518 92.5379 32.7153ZM80.4933 19.0295H56.0469C55.631 19.0295 55.2938 18.6892 55.2938 18.2694C55.2938 17.8497 55.631 17.5093 56.0469 17.5093H73.6802L57.7299 13.9545C55.792 13.5224 53.8055 13.716 51.9851 14.5135L46.2181 17.0409C47.3709 18.2843 47.7729 20.0944 47.215 21.7277C49.3173 21.3066 51.4826 22.2222 52.6551 24.0491L55.9574 29.1948L64.62 23.9448C67.3051 22.3176 70.689 22.6267 73.0403 24.7153L75.0094 26.4641L88.0391 26.6188L84.2876 21.535C83.3561 20.2725 82.0106 19.3856 80.4933 19.0295ZM29.8084 2.11277L33.8956 5.60946C34.7296 6.32301 35.79 6.74696 36.8815 6.80378L44.083 7.1787C45.8767 7.272 47.5707 8.11971 48.7301 9.50463L51.6605 13.0049C53.0786 12.4286 54.5771 12.1641 56.0832 12.218L51.7987 7.06164C51.5316 6.74012 51.5732 6.26049 51.8919 5.99084C52.2102 5.72081 52.6852 5.763 52.9527 6.08472L58.3044 12.5255L63.03 13.5786L56.5375 5.48366C55.1685 3.77665 53.1376 2.72314 50.9655 2.59316L33.2557 1.53376C32.0771 1.46193 30.8954 1.66564 29.8084 2.11277ZM20.8492 17.5433L30.6977 18.3175L33.2124 16.3802L27.9759 10.6912C27.6928 10.3837 27.7103 9.90274 28.0151 9.61693C28.3199 9.3317 28.7962 9.34881 29.0793 9.65646L34.4154 15.4534L35.8339 14.3606C37.4384 13.1241 39.6071 12.9798 41.3588 13.9925L44.8229 15.9952L46.5582 15.2347L44.4661 12.2919C44.2237 11.9508 44.301 11.476 44.639 11.2312C44.9769 10.9863 45.4471 11.0646 45.6898 11.4057L47.9716 14.6154L50.2143 13.6326L47.5803 10.4861C46.6885 9.42102 45.3856 8.76884 44.0061 8.6972L36.8043 8.32228C35.3851 8.24836 34.0063 7.6969 32.9221 6.76938L28.3788 2.88257C28.3523 2.90063 28.325 2.91773 28.2984 2.93616C27.0674 3.79641 26.1083 4.9875 25.5248 6.3804L20.8492 17.5433ZM4.54719 30.4163L14.6571 30.6761L19.9425 26.604L13.2521 26.364C12.8364 26.3492 12.5115 25.9969 12.5264 25.5773C12.5411 25.1577 12.8884 24.8303 13.3058 24.8449L21.829 25.1507L28.902 19.7015L15.9577 18.6839C14.7683 18.5904 13.6096 19.0938 12.8596 20.031L4.54719 30.4163ZM6.09804 47.2658L6.97907 40.4226H4.11665C3.70079 40.4226 3.36363 40.0822 3.36363 39.6625C3.36363 39.2427 3.70079 38.9024 4.11665 38.9024H7.18239C7.49225 37.0922 8.48229 35.4336 9.93204 34.3164L12.7468 32.1478L3.36702 31.9069C2.54604 33.0417 2.06561 34.3748 1.97468 35.7855L1.51402 42.9357C1.40314 44.6585 2.47243 46.1994 4.11458 46.6824L6.09804 47.2658ZM12.6047 62.533L38.6114 40.6457C40.1483 39.3521 41.1171 37.4553 41.2692 35.4414L41.6342 30.6107C41.744 29.157 42.1809 27.7193 42.8974 26.4537L45.5513 21.7655C46.3973 20.271 45.8816 18.3591 44.402 17.5036L40.6101 15.3115C40.0674 14.9979 39.4674 14.8429 38.8699 14.8429C38.1191 14.8429 37.3719 15.0874 36.7473 15.5688L10.8458 35.525C9.63422 36.4586 8.82661 37.869 8.63007 39.3947L7.23679 50.2156C8.11237 48.4314 9.26185 46.6323 10.7498 45.1957C15.2271 40.8727 25.725 36.09 26.1696 35.8883C26.549 35.7167 26.9946 35.8874 27.1649 36.2707C27.3353 36.6536 27.1657 37.1034 26.7863 37.2753C26.6798 37.3236 16.0803 42.1526 11.7909 46.2942C7.70254 50.2416 6.31961 57.5296 6.23735 57.9812C5.98358 59.9921 7.39417 61.8415 9.38667 62.106L12.6047 62.533ZM55.5474 38.455C57.1666 36.7963 57.4215 34.2725 56.1672 32.3179L52.5272 26.6462L51.9273 31.8047C51.6195 34.4517 50.3796 36.9033 48.4363 38.7078L39.2251 47.2603C39.0804 47.3945 38.8977 47.461 38.7155 47.461C38.5122 47.461 38.3096 47.3783 38.1611 47.2155C37.8795 46.9065 37.8994 46.4257 38.2055 46.1414L47.4167 37.5889C49.0952 36.0307 50.1658 33.9134 50.4316 31.6276L51.2416 24.6619C50.3497 23.4625 48.8244 22.8973 47.3649 23.2508L46.2996 23.5085L44.2052 27.2081C43.5987 28.2795 43.2289 29.496 43.1359 30.7264L42.7709 35.5573C42.5881 37.9783 41.4236 40.2586 39.576 41.8136L14.6362 62.8026L19.5573 63.4557L31.5682 52.3038C31.8743 52.0199 32.3508 52.0397 32.6322 52.3487C32.9139 52.6576 32.8939 53.1384 32.5878 53.4227L21.5039 63.714L26.8961 64.4296C28.7239 64.6717 30.5876 64.0258 31.8817 62.7L55.5474 38.455ZM58.2835 53.8539L49.9039 46.4027L42.6308 53.8539H58.2835ZM87.9975 56.6326C87.5862 55.4565 85.5975 50.0596 82.7068 46.9031C79.6639 43.5801 61.6032 31.2868 58.69 29.3123L56.7767 30.4718L57.4311 31.4915C59.0725 34.0491 58.7389 37.3515 56.6201 39.5222L53.8697 42.3399L65.1477 51.8816C65.4664 52.1512 65.5084 52.6305 65.2411 52.9524C65.0921 53.1318 64.8787 53.2243 64.6637 53.2243C64.4929 53.2243 64.3214 53.166 64.1804 53.0466L52.8094 43.4263L50.9628 45.3182L63.3958 56.3738C64.4404 57.303 65.7815 57.8551 67.172 57.9286L82.5387 58.7402C82.1673 57.4648 81.3073 55.4153 79.4001 53.8871C76.2589 51.3702 59.485 44.1005 59.3159 44.0274C58.9338 43.8621 58.7566 43.4151 58.9204 43.0294C59.0844 42.6432 59.5269 42.4652 59.9091 42.6299C60.607 42.9319 77.0388 50.0541 80.3363 52.6964C82.8294 54.6938 83.7819 57.441 84.1197 58.8236L84.678 58.8531C86.1636 58.9319 87.497 58.027 87.9975 56.6326ZM90.1133 49.283L81.2891 41.0384C80.9839 40.7532 80.9654 40.2724 81.248 39.9644C81.5306 39.6564 82.0069 39.6378 82.3122 39.9228L90.5785 47.6461C91.2864 45.0338 90.4529 42.2048 88.4349 40.4125L72.0452 25.8566C70.188 24.2072 67.5156 23.9626 65.3949 25.2484L64.444 25.8247L75.3942 34.4624C75.722 34.7208 75.78 35.1985 75.5239 35.5292C75.3754 35.7211 75.1538 35.8213 74.93 35.8213C74.7679 35.8213 74.6045 35.7688 74.4669 35.6599L63.0611 26.6627L60.1164 28.4475C64.379 31.3418 80.7821 42.5615 83.8128 45.871C86.0706 48.3366 87.7654 51.9378 88.6975 54.2242L90.1133 49.283ZM90.9449 41.0447L92.4722 38.0632L86.1626 36.3695L89.4298 39.2712C90.0207 39.7959 90.5271 40.3946 90.9449 41.0447Z" fill="black"/>
</svg>
