<svg width="109" height="73" viewBox="0 0 109 73" fill="none" xmlns="http://www.w3.org/2000/svg">
<path d="M108.397 24.9053C108.552 24.4849 108.381 23.9996 108.014 23.821L59.2301 0.0616965C59.024 -0.0405407 58.8005 -0.00886132 58.6145 0.106335L0.400819 32.7531C0.054941 32.9461 -0.0899035 33.4198 0.0599354 33.823C0.0312163 33.9123 0 34.003 0 34.1009V48.4112C0 48.7439 0.172314 49.0463 0.439527 49.1759L7.50568 52.6174C7.59434 52.6606 7.68798 52.6822 7.78039 52.6822C7.78288 52.6822 7.78413 52.6836 7.78538 52.6836C7.80411 52.6836 7.82284 52.6706 7.84282 52.6692C7.92024 52.6591 7.9964 52.6447 8.06882 52.6102C8.07757 52.6058 8.08631 52.6073 8.09505 52.603L14.7379 48.9613C14.8303 48.9109 14.9077 48.8389 14.9702 48.7554L20.6952 51.4251V58.5356C20.6952 58.9474 20.9575 59.2714 21.2971 59.3362L26.6014 62.1283C26.6051 62.1312 26.6101 62.1297 26.6151 62.1312C26.7025 62.1744 26.7987 62.2003 26.8998 62.2003C26.9997 62.2003 27.0946 62.1773 27.1808 62.1341C27.182 62.1341 27.182 62.1341 27.1833 62.1341L35.1672 58.1842C35.1697 58.1828 35.1697 58.1814 35.1722 58.1799L41.1133 60.9547V68.5304C41.1133 68.8788 41.2994 69.174 41.5628 69.2964L49.2308 72.9366C49.3182 72.9784 49.4106 73 49.5043 73C49.6117 73 49.7178 72.9698 49.8177 72.9179L56.9825 68.8976C57.0087 68.8832 57.0237 68.8572 57.0487 68.84C57.1011 68.8011 57.1523 68.7622 57.1935 68.7104C57.2185 68.6801 57.2322 68.6441 57.2522 68.611C57.2834 68.5592 57.3171 68.5059 57.3371 68.4425C57.3521 68.395 57.3546 68.3446 57.3621 68.2928C57.3708 68.2467 57.3883 68.2035 57.3883 68.1517V61.1477L70.3931 54.0372L77.3843 57.1619C77.4655 57.1964 77.5529 57.2123 77.6353 57.2137C77.6378 57.2137 77.639 57.2152 77.6403 57.2152H77.6428C77.7477 57.2152 77.8463 57.1864 77.935 57.1403C77.94 57.1388 77.945 57.1403 77.9487 57.1374L84.8488 53.3575C85.2059 53.1588 85.3595 52.6663 85.1897 52.2531C85.1684 52.2027 85.1335 52.1667 85.1073 52.1235V45.9907L95.5061 40.2999L102.847 42.9063L102.873 42.9149C102.941 42.9408 103.016 42.948 103.083 42.948C103.087 42.948 103.09 42.9451 103.095 42.9451C103.13 42.9451 103.163 42.9336 103.198 42.9264C103.245 42.9178 103.293 42.9092 103.336 42.889C103.35 42.8832 103.363 42.8803 103.374 42.8746C103.381 42.8703 103.389 42.8717 103.396 42.8674L108.053 40.2553C108.3 40.1171 108.457 39.8262 108.457 39.5108V25.1948C108.457 25.094 108.423 25.0032 108.393 24.9111C108.392 24.9111 108.396 24.9096 108.397 24.9053ZM49.4793 56.9473L39.1254 51.906L96.2328 19.8799L106.584 24.9212L49.4793 56.9473ZM58.9866 1.73925L66.5397 5.41835L9.56971 37.3667C9.52726 37.3912 9.49604 37.4287 9.46233 37.4603L1.87673 33.7683L58.9866 1.73925ZM67.8858 6.07353L75.7848 9.9211L18.6774 41.9501L10.7759 38.1026L67.8858 6.07353ZM77.1296 10.5763L84.5479 14.1891L27.4417 46.2167L20.0247 42.6039L77.1296 10.5763ZM85.8952 14.8443L94.888 19.2247L37.8143 51.2336C37.8044 51.2393 37.7981 51.2494 37.7894 51.2552L28.789 46.8734L85.8952 14.8443ZM1.43471 35.3508L48.7838 58.4074V70.9365L42.5468 67.976V60.6264C42.5468 60.5832 42.5318 60.5443 42.5255 60.504C42.568 60.1383 42.4082 59.7725 42.0947 59.6256L27.1883 52.6706C26.9073 52.5396 26.5977 52.6361 26.3991 52.8794C26.2643 53.0292 26.1794 53.238 26.1794 53.4727V60.0893L22.1275 57.9582V50.9614C22.1599 50.6057 21.9988 50.2515 21.6929 50.1104L8.07881 43.7559C7.71795 43.5888 7.29466 43.7918 7.14357 44.2152C7.09113 44.3635 7.09113 44.5147 7.11485 44.6645V50.6345L1.43346 47.8655V35.3508H1.43471ZM8.39223 50.6057V45.6868L13.2383 47.9476L8.39223 50.6057ZM27.6153 60.121V54.6549L33.2992 57.3087L27.6153 60.121ZM76.9223 55.1819L72.1799 53.0594L76.9223 50.4646V55.1819ZM102.362 40.9998L97.4253 39.2502L102.362 36.546V40.9998ZM107.02 38.9968L103.798 40.801V35.237C103.798 34.9534 103.672 34.6913 103.465 34.5358C103.254 34.386 102.992 34.3673 102.771 34.4897L95.1102 38.6843L84.0496 44.7379C83.7437 44.9035 83.6014 45.2894 83.6688 45.6552V52.171L78.3558 55.0811V49.4077C78.3558 49.1399 78.2396 48.9152 78.0698 48.7655C77.8725 48.4458 77.5079 48.3162 77.1908 48.489L70.0846 52.3755C70.0747 52.3798 70.0647 52.3855 70.0572 52.3898L56.3607 59.8805C56.1084 60.0159 55.9511 60.3096 55.9511 60.6293V67.639L50.2198 70.853V58.3772L107.02 26.521V38.9968Z" fill="black"/>
</svg>
