<svg width="73" height="74" viewBox="0 0 73 74" fill="none" xmlns="http://www.w3.org/2000/svg">
<mask id="path-1-inside-1_103_5660" fill="white">
<path d="M72.9983 14.6872V7.84356V7.83216C72.9986 7.72397 72.9828 7.61635 72.9515 7.51279C72.9458 7.49454 72.9344 7.47743 72.9276 7.45918C72.8989 7.37631 72.8606 7.29707 72.8135 7.22308C72.7919 7.19403 72.7687 7.16623 72.7439 7.13981C72.6825 7.0457 72.5996 6.96751 72.5021 6.91169C72.4487 6.87244 72.3918 6.83808 72.3322 6.80904C72.3196 6.80904 72.3093 6.79307 72.2968 6.78737C72.2657 6.77802 72.2341 6.77041 72.2021 6.76456C72.1651 6.7482 72.127 6.73448 72.0881 6.7235L43.5731 1.0205C43.3896 0.983633 43.1998 0.992772 43.0207 1.04711C42.8416 1.10144 42.6787 1.19928 42.5466 1.33189L0.344461 43.534C0.260056 43.6206 0.190326 43.7204 0.138012 43.8294C0.125466 43.8534 0.118622 43.8773 0.108357 43.9024C0.0527061 44.0325 0.0213916 44.1717 0.0159684 44.313C0.0159684 44.3222 0.0159684 44.3313 0.0159684 44.3404V51.184C0.0159147 51.447 0.106711 51.7018 0.272989 51.9055C0.439268 52.1092 0.670817 52.2492 0.928447 52.3018L6.4421 53.4048L0.334195 59.5047C0.280309 59.5683 0.233995 59.638 0.196183 59.7123C0.161534 59.7574 0.130272 59.8051 0.102654 59.8548C0.0376035 59.9983 0.00266579 60.1536 2.37765e-08 60.3111V67.1547C-5.36425e-05 67.4176 0.0907422 67.6725 0.257021 67.8762C0.4233 68.0799 0.654848 68.2199 0.912478 68.2724L29.4274 73.9754C29.5024 73.9912 29.5789 73.9989 29.6556 73.9982C29.7942 73.9968 29.9314 73.9702 30.0605 73.9195C30.1015 73.9036 30.1346 73.8751 30.1745 73.8557C30.2468 73.8251 30.3156 73.7868 30.3798 73.7416C30.3935 73.7302 30.3992 73.712 30.4129 73.7006C30.4266 73.6891 30.4483 73.6812 30.4631 73.6663L72.6652 31.4642C72.7712 31.358 72.8552 31.2318 72.9123 31.0931C72.9695 30.9543 72.9987 30.8056 72.9983 30.6555V23.8119C72.9941 23.7605 72.9865 23.7095 72.9755 23.6591C72.9715 23.6208 72.9654 23.5827 72.9572 23.545C72.9287 23.4178 72.8781 23.2966 72.8078 23.1869C72.7119 23.0436 72.5823 22.9261 72.4303 22.8447C72.3872 22.8149 72.3422 22.7878 72.2957 22.7637C72.2477 22.7487 72.199 22.7366 72.1497 22.7272C72.1257 22.7272 72.1075 22.7044 72.0824 22.6999L66.5687 21.5958L72.6652 15.4993C72.7716 15.3926 72.8558 15.2659 72.913 15.1265C72.9702 14.9871 72.9991 14.8378 72.9983 14.6872ZM29.2803 64.7765L26.5064 64.221C27.2182 62.0361 28.1995 59.9483 29.4274 58.0059C29.5024 58.0221 29.5789 58.0301 29.6556 58.0299C29.7942 58.0285 29.9314 58.0018 30.0605 57.9512C30.1015 57.9352 30.1346 57.9067 30.1745 57.8873C30.2468 57.8567 30.3156 57.8184 30.3798 57.7732C30.3935 57.7618 30.3992 57.7436 30.4129 57.7322C30.4266 57.7208 30.4483 57.7128 30.4631 57.698L49.8441 38.3146C48.9095 40.8192 48.2817 43.4277 47.9747 46.0833L29.2803 64.7765ZM27.0402 57.5292C25.8771 59.4966 24.943 61.5907 24.256 63.7705L13.9723 61.7174C14.5772 59.5492 15.3467 57.4303 16.2741 55.3791L27.0402 57.5292ZM50.581 4.7514L45.2201 10.3917C35.2632 20.8747 28.3641 33.8821 25.27 48.0052L14.3305 45.8175C21.706 32.8163 30.7984 20.8672 41.3626 10.2924L47.5162 4.1389L50.581 4.7514ZM29.2803 48.8081L27.5067 48.4489C30.5184 34.7489 37.2171 22.1326 46.8786 11.9634L53.2283 5.28064L58.0564 6.24672L51.9371 12.009C44.3341 19.1513 39.6588 28.8658 38.8203 39.2636L29.2803 48.8081ZM53.5009 13.6697L60.8007 6.79649L69.54 8.54389L41.4254 36.6631C42.762 27.8626 47.0143 19.7656 53.5009 13.6697ZM43.718 3.37812L44.8312 3.60624L39.7533 8.67962C28.8618 19.576 19.5137 31.9125 11.9694 45.3453L3.45373 43.6424L43.718 3.37812ZM2.2812 45.7342L28.515 50.981V55.4977L2.2812 50.251V45.7342ZM13.9815 54.9172C13.0794 56.9766 12.327 59.0982 11.7299 61.2658L3.45373 59.6107L9.12478 53.9454L13.9815 54.9172ZM2.2812 61.7026L28.515 66.9494V71.4661L2.2812 66.2194V61.7026ZM70.7171 30.1833L30.7961 70.1042V66.4863L70.7171 26.5653V30.1833ZM69.5445 24.5123L50.7566 43.2968C51.6873 38.3782 54.1295 33.8725 57.7428 30.408L64.6251 23.5256L69.5445 24.5123ZM70.7171 14.2149L30.7961 54.1359V50.5179L70.7171 10.597V14.2149Z"/>
</mask>
<path d="M72.9983 14.6872V7.84356V7.83216C72.9986 7.72397 72.9828 7.61635 72.9515 7.51279C72.9458 7.49454 72.9344 7.47743 72.9276 7.45918C72.8989 7.37631 72.8606 7.29707 72.8135 7.22308C72.7919 7.19403 72.7687 7.16623 72.7439 7.13981C72.6825 7.0457 72.5996 6.96751 72.5021 6.91169C72.4487 6.87244 72.3918 6.83808 72.3322 6.80904C72.3196 6.80904 72.3093 6.79307 72.2968 6.78737C72.2657 6.77802 72.2341 6.77041 72.2021 6.76456C72.1651 6.7482 72.127 6.73448 72.0881 6.7235L43.5731 1.0205C43.3896 0.983633 43.1998 0.992772 43.0207 1.04711C42.8416 1.10144 42.6787 1.19928 42.5466 1.33189L0.344461 43.534C0.260056 43.6206 0.190326 43.7204 0.138012 43.8294C0.125466 43.8534 0.118622 43.8773 0.108357 43.9024C0.0527061 44.0325 0.0213916 44.1717 0.0159684 44.313C0.0159684 44.3222 0.0159684 44.3313 0.0159684 44.3404V51.184C0.0159147 51.447 0.106711 51.7018 0.272989 51.9055C0.439268 52.1092 0.670817 52.2492 0.928447 52.3018L6.4421 53.4048L0.334195 59.5047C0.280309 59.5683 0.233995 59.638 0.196183 59.7123C0.161534 59.7574 0.130272 59.8051 0.102654 59.8548C0.0376035 59.9983 0.00266579 60.1536 2.37765e-08 60.3111V67.1547C-5.36425e-05 67.4176 0.0907422 67.6725 0.257021 67.8762C0.4233 68.0799 0.654848 68.2199 0.912478 68.2724L29.4274 73.9754C29.5024 73.9912 29.5789 73.9989 29.6556 73.9982C29.7942 73.9968 29.9314 73.9702 30.0605 73.9195C30.1015 73.9036 30.1346 73.8751 30.1745 73.8557C30.2468 73.8251 30.3156 73.7868 30.3798 73.7416C30.3935 73.7302 30.3992 73.712 30.4129 73.7006C30.4266 73.6891 30.4483 73.6812 30.4631 73.6663L72.6652 31.4642C72.7712 31.358 72.8552 31.2318 72.9123 31.0931C72.9695 30.9543 72.9987 30.8056 72.9983 30.6555V23.8119C72.9941 23.7605 72.9865 23.7095 72.9755 23.6591C72.9715 23.6208 72.9654 23.5827 72.9572 23.545C72.9287 23.4178 72.8781 23.2966 72.8078 23.1869C72.7119 23.0436 72.5823 22.9261 72.4303 22.8447C72.3872 22.8149 72.3422 22.7878 72.2957 22.7637C72.2477 22.7487 72.199 22.7366 72.1497 22.7272C72.1257 22.7272 72.1075 22.7044 72.0824 22.6999L66.5687 21.5958L72.6652 15.4993C72.7716 15.3926 72.8558 15.2659 72.913 15.1265C72.9702 14.9871 72.9991 14.8378 72.9983 14.6872ZM29.2803 64.7765L26.5064 64.221C27.2182 62.0361 28.1995 59.9483 29.4274 58.0059C29.5024 58.0221 29.5789 58.0301 29.6556 58.0299C29.7942 58.0285 29.9314 58.0018 30.0605 57.9512C30.1015 57.9352 30.1346 57.9067 30.1745 57.8873C30.2468 57.8567 30.3156 57.8184 30.3798 57.7732C30.3935 57.7618 30.3992 57.7436 30.4129 57.7322C30.4266 57.7208 30.4483 57.7128 30.4631 57.698L49.8441 38.3146C48.9095 40.8192 48.2817 43.4277 47.9747 46.0833L29.2803 64.7765ZM27.0402 57.5292C25.8771 59.4966 24.943 61.5907 24.256 63.7705L13.9723 61.7174C14.5772 59.5492 15.3467 57.4303 16.2741 55.3791L27.0402 57.5292ZM50.581 4.7514L45.2201 10.3917C35.2632 20.8747 28.3641 33.8821 25.27 48.0052L14.3305 45.8175C21.706 32.8163 30.7984 20.8672 41.3626 10.2924L47.5162 4.1389L50.581 4.7514ZM29.2803 48.8081L27.5067 48.4489C30.5184 34.7489 37.2171 22.1326 46.8786 11.9634L53.2283 5.28064L58.0564 6.24672L51.9371 12.009C44.3341 19.1513 39.6588 28.8658 38.8203 39.2636L29.2803 48.8081ZM53.5009 13.6697L60.8007 6.79649L69.54 8.54389L41.4254 36.6631C42.762 27.8626 47.0143 19.7656 53.5009 13.6697ZM43.718 3.37812L44.8312 3.60624L39.7533 8.67962C28.8618 19.576 19.5137 31.9125 11.9694 45.3453L3.45373 43.6424L43.718 3.37812ZM2.2812 45.7342L28.515 50.981V55.4977L2.2812 50.251V45.7342ZM13.9815 54.9172C13.0794 56.9766 12.327 59.0982 11.7299 61.2658L3.45373 59.6107L9.12478 53.9454L13.9815 54.9172ZM2.2812 61.7026L28.515 66.9494V71.4661L2.2812 66.2194V61.7026ZM70.7171 30.1833L30.7961 70.1042V66.4863L70.7171 26.5653V30.1833ZM69.5445 24.5123L50.7566 43.2968C51.6873 38.3782 54.1295 33.8725 57.7428 30.408L64.6251 23.5256L69.5445 24.5123ZM70.7171 14.2149L30.7961 54.1359V50.5179L70.7171 10.597V14.2149Z" fill="black" stroke="white" mask="url(#path-1-inside-1_103_5660)"/>
</svg>
