<svg width="100" height="58" viewBox="0 0 100 58" fill="none" xmlns="http://www.w3.org/2000/svg">
<mask id="path-1-inside-1_103_5632" fill="white">
<path d="M6.70312 9.40834C6.89062 9.51684 7.09375 9.57883 7.3125 9.57883C7.70312 9.57883 8.09375 9.37734 8.3125 9.02084C8.98437 7.90486 9.71875 7.30037 10.3906 7.30037C11.2969 7.30037 12.0781 8.35435 12.4531 8.97434C12.7969 9.51684 13.5156 9.70283 14.0625 9.36184C14.6094 9.03634 14.7969 8.30785 14.4531 7.76536C13.0312 5.4559 11.4531 4.95991 10.375 4.95991C9.29688 4.95991 7.70312 5.4559 6.28125 7.81186C5.96875 8.36985 6.15625 9.08284 6.70312 9.40834Z"/>
<path d="M14.7344 27.2485C15.0469 26.6905 14.8281 25.9775 14.2656 25.6676C13.7031 25.3576 12.9844 25.5746 12.6719 26.1325C11.9688 27.419 11.1406 28.163 10.4062 28.163C9.67188 28.163 8.82812 27.4035 8.125 26.086C7.8125 25.5281 7.10938 25.3111 6.53125 25.6056C5.95313 25.9001 5.75 26.613 6.04688 27.1865C7.20312 29.31 8.75 30.488 10.4062 30.488C11.5625 30.488 13.2656 29.93 14.7344 27.2485Z"/>
<path d="M10.4062 25.1251C12.8438 25.1251 14.7969 22.3351 15.0312 18.4912C15.0781 17.8557 14.5781 17.2977 13.9375 17.2667C13.2812 17.2357 12.7344 17.7162 12.7031 18.3517C12.5469 20.9711 11.375 22.8001 10.4219 22.8001C9.48438 22.8001 8.125 20.8316 8.125 17.7317C8.125 14.6317 9.48438 12.6633 10.4219 12.6633C10.8906 12.6633 11.4219 13.1128 11.8594 13.8878C12.1719 14.4458 12.8906 14.6472 13.4531 14.3373C14.0156 14.0273 14.2187 13.3143 13.9062 12.7563C13.0312 11.1908 11.7969 10.3383 10.4219 10.3383C7.8125 10.3383 5.78125 13.5778 5.78125 17.7317C5.76562 21.8701 7.79688 25.1251 10.4062 25.1251Z"/>
<path d="M89.5938 35.4479C95.4219 35.4479 100 27.667 100 17.7162C100 7.78086 95.4219 0 89.5938 0H10.4062C4.57812 0 0 7.78086 0 17.7162C0 27.636 4.5625 35.4169 10.375 35.4479C10.3906 35.4479 10.3906 35.4479 10.4062 35.4479H17.6094L21.3438 39.1523L9.9375 50.4671C9.28125 51.1181 8.90625 52.0016 8.90625 52.9316C8.90625 53.8616 9.26562 54.7451 9.9375 55.396L11.5312 56.977C12.1875 57.628 13.0781 58 14.0156 58C14.9531 58 15.8438 57.6435 16.5 56.977L27.9062 45.6622L39.3125 56.977C39.9688 57.628 40.8594 58 41.7969 58C42.7344 58 43.625 57.6435 44.2812 56.977L45.875 55.396C46.5312 54.7451 46.9062 53.8616 46.9062 52.9316C46.9062 52.0016 46.5469 51.1181 45.875 50.4671L34.4688 39.1523L38.2031 35.4479H60.3281L64.0625 39.1523L52.6562 50.4671C52 51.1181 51.625 52.0016 51.625 52.9316C51.625 53.8616 51.9844 54.7451 52.6562 55.396L54.25 56.977C54.9062 57.628 55.7969 58 56.7344 58C57.6719 58 58.5625 57.6435 59.2188 56.977L70.625 45.6622L82.0312 56.977C82.6875 57.628 83.5781 58 84.5156 58C85.4531 58 86.3438 57.6435 87 56.977L88.5938 55.396C89.25 54.7451 89.625 53.8616 89.625 52.9316C89.625 52.0016 89.2656 51.1181 88.5938 50.4671L77.1875 39.1523L80.9219 35.4479H89.5938ZM2.34375 17.7162C2.34375 9.37734 6.03125 2.32496 10.4062 2.32496H10.4219C14.7812 2.34046 18.4688 9.37734 18.4688 17.7162C18.4688 26.0705 14.7812 33.1229 10.4062 33.1229C6.03125 33.1229 2.34375 26.0705 2.34375 17.7162ZM32.2188 28.3645H23.75C23.1094 28.3645 22.5781 28.8915 22.5781 29.527C22.5781 30.1625 23.1094 30.6895 23.75 30.6895H29.875L27.4219 33.1229H18.1094C18.0938 33.1229 18.0938 33.1229 18.0781 33.1229H15.625C17.3438 31.4645 18.75 28.9845 19.6562 25.9931H34.625L32.2188 28.3645ZM14.8438 55.334C14.4062 55.768 13.625 55.768 13.1875 55.334L11.5938 53.7531C11.375 53.5361 11.25 53.2416 11.25 52.9316C11.25 52.6216 11.375 52.3271 11.5938 52.1101L23 40.7953L26.25 44.0192L14.8438 55.334ZM44.5469 52.9316C44.5469 53.2416 44.4219 53.5361 44.2031 53.7531L42.6094 55.334C42.1719 55.768 41.3906 55.768 40.9531 55.334L20.9219 35.4479H27.4219L44.2188 52.1101C44.4219 52.3271 44.5469 52.6216 44.5469 52.9316ZM29.5625 34.2854L40.9531 22.9861C41.4062 22.5366 42.1562 22.5366 42.6094 22.9861L44.2031 24.5671C44.6562 25.0166 44.6562 25.7606 44.2031 26.21L32.7969 37.5249L29.5625 34.2854ZM44.0625 29.6355H54.0469C54.6875 29.6355 55.2188 29.1085 55.2188 28.473C55.2188 27.8375 54.6875 27.3105 54.0469 27.3105H46.3125C46.6875 26.737 46.8906 26.086 46.8906 25.3886C46.8906 24.4586 46.5312 23.5751 45.8594 22.9241L44.2656 21.3431C42.8906 19.9792 40.6719 19.9792 39.2969 21.3431L36.9531 23.6681H20.2188C20.5938 21.8081 20.8125 19.8242 20.8125 17.7162C20.8125 16.6002 20.75 15.5307 20.6406 14.4922H40.7969C42.0469 14.4922 43.125 13.6088 43.3281 12.3998C43.8125 9.64083 46.4219 7.56387 49.4219 7.56387C51.2031 7.56387 52.8906 8.27686 54.0625 9.51684C54.5 9.98183 55.25 10.0128 55.7188 9.56333C56.1875 9.12934 56.2187 8.38535 55.7656 7.92036C54.1562 6.23089 51.8438 5.25441 49.4375 5.23891H49.4062C45.2188 5.25441 41.6875 8.09086 41.0156 12.0123C41 12.0898 40.9219 12.1673 40.7969 12.1673H20.2969C19.5 7.95136 17.8281 4.46392 15.6094 2.32496H89.5938C91.3906 2.32496 93.0625 3.53394 94.4219 5.5179H76.5625C75.9219 5.5179 75.3906 6.0449 75.3906 6.68038C75.3906 7.31587 75.9219 7.84286 76.5625 7.84286H95.7188C96.9219 10.5398 97.6562 13.9963 97.6562 17.7162C97.6562 18.5532 97.6094 19.3592 97.5469 20.1652H91.9375C91.2969 20.1652 90.7656 20.6921 90.7656 21.3276C90.7656 21.9631 91.2969 22.4901 91.9375 22.4901H97.2344C96.1563 28.5815 93.0938 33.1229 89.5938 33.1229H83.2656L88.5938 27.8375C89.9688 26.4735 89.9688 24.2726 88.5938 22.9086L87 21.3276C85.625 19.9637 83.4062 19.9637 82.0312 21.3276L76.0156 27.295H62.0781C61.4375 27.295 60.9062 27.822 60.9062 28.4575C60.9062 29.093 61.4375 29.62 62.0781 29.62H73.6719L70.1562 33.1074H60.8437C60.8281 33.1074 60.8281 33.1074 60.8125 33.1074H40.5469L44.0625 29.6355ZM57.5625 55.334C57.125 55.768 56.3438 55.768 55.9062 55.334L54.3125 53.7531C54.0937 53.5361 53.9688 53.2416 53.9688 52.9316C53.9688 52.6216 54.0937 52.3271 54.3125 52.1101L65.7188 40.7953L68.9688 44.0192L57.5625 55.334ZM87.2656 52.9316C87.2656 53.2416 87.1406 53.5361 86.9219 53.7531L85.3281 55.334C84.8906 55.768 84.1094 55.768 83.6719 55.334L63.6406 35.4479H70.1406L86.9375 52.1101C87.1562 52.3271 87.2656 52.6216 87.2656 52.9316ZM72.2812 34.2854L83.6875 22.9706C84.1406 22.5211 84.8906 22.5211 85.3438 22.9706L86.9375 24.5516C87.3906 25.0011 87.3906 25.7451 86.9375 26.1945L75.5312 37.5094L72.2812 34.2854Z"/>
<path d="M35 17.9177H25.3281C24.6875 17.9177 24.1562 18.4447 24.1562 19.0802C24.1562 19.7157 24.6875 20.2427 25.3281 20.2427H35C35.6406 20.2427 36.1719 19.7157 36.1719 19.0802C36.1719 18.4447 35.6406 17.9177 35 17.9177Z"/>
<path d="M93.6094 13.3298C93.6094 12.6943 93.0781 12.1673 92.4375 12.1673H58.0938C56.8438 12.1673 55.7656 13.0508 55.5625 14.2598C55.0781 17.0187 52.4531 19.0957 49.4375 19.0957C48.7969 19.0957 48.2656 19.6227 48.2656 20.2582C48.2656 20.8936 48.7969 21.4206 49.4375 21.4206C53.6406 21.4206 57.1875 18.5687 57.8594 14.6472C57.875 14.5542 57.9687 14.4922 58.0781 14.4922H92.4219C93.0781 14.4922 93.6094 13.9653 93.6094 13.3298Z"/>
<path d="M52.9688 13.3298C52.9688 11.4698 51.3906 9.95083 49.4531 9.95083C47.5156 9.95083 45.9375 11.4698 45.9375 13.3298C45.9375 15.1897 47.5156 16.7087 49.4531 16.7087C51.375 16.6932 52.9688 15.1897 52.9688 13.3298ZM48.2813 13.3298C48.2813 12.7563 48.7969 12.2758 49.4531 12.2758C50.1094 12.2758 50.625 12.7408 50.625 13.3298C50.625 13.9188 50.0938 14.3838 49.4531 14.3838C48.7969 14.3683 48.2813 13.9033 48.2813 13.3298Z"/>
<path d="M36.875 5.7194H23.75C23.1094 5.7194 22.5781 6.24639 22.5781 6.88188C22.5781 7.51737 23.1094 8.04436 23.75 8.04436H36.875C37.5156 8.04436 38.0469 7.51737 38.0469 6.88188C38.0469 6.24639 37.5156 5.7194 36.875 5.7194Z"/>
<path d="M76.8125 20.1652H61.6719C61.0313 20.1652 60.5 20.6921 60.5 21.3276C60.5 21.9631 61.0313 22.4901 61.6719 22.4901H76.8125C77.4531 22.4901 77.9844 21.9631 77.9844 21.3276C77.9844 20.6921 77.4531 20.1652 76.8125 20.1652Z"/>
<path d="M62.6875 7.84286H69.9219C70.5625 7.84286 71.0938 7.31587 71.0938 6.68038C71.0938 6.0449 70.5625 5.5179 69.9219 5.5179H62.6875C62.0469 5.5179 61.5156 6.0449 61.5156 6.68038C61.5156 7.31587 62.0312 7.84286 62.6875 7.84286Z"/>
</mask>
<path d="M6.70312 9.40834C6.89062 9.51684 7.09375 9.57883 7.3125 9.57883C7.70312 9.57883 8.09375 9.37734 8.3125 9.02084C8.98437 7.90486 9.71875 7.30037 10.3906 7.30037C11.2969 7.30037 12.0781 8.35435 12.4531 8.97434C12.7969 9.51684 13.5156 9.70283 14.0625 9.36184C14.6094 9.03634 14.7969 8.30785 14.4531 7.76536C13.0312 5.4559 11.4531 4.95991 10.375 4.95991C9.29688 4.95991 7.70312 5.4559 6.28125 7.81186C5.96875 8.36985 6.15625 9.08284 6.70312 9.40834Z" fill="black"/>
<path d="M14.7344 27.2485C15.0469 26.6905 14.8281 25.9775 14.2656 25.6676C13.7031 25.3576 12.9844 25.5746 12.6719 26.1325C11.9688 27.419 11.1406 28.163 10.4062 28.163C9.67188 28.163 8.82812 27.4035 8.125 26.086C7.8125 25.5281 7.10938 25.3111 6.53125 25.6056C5.95313 25.9001 5.75 26.613 6.04688 27.1865C7.20312 29.31 8.75 30.488 10.4062 30.488C11.5625 30.488 13.2656 29.93 14.7344 27.2485Z" fill="black"/>
<path d="M10.4062 25.1251C12.8438 25.1251 14.7969 22.3351 15.0312 18.4912C15.0781 17.8557 14.5781 17.2977 13.9375 17.2667C13.2812 17.2357 12.7344 17.7162 12.7031 18.3517C12.5469 20.9711 11.375 22.8001 10.4219 22.8001C9.48438 22.8001 8.125 20.8316 8.125 17.7317C8.125 14.6317 9.48438 12.6633 10.4219 12.6633C10.8906 12.6633 11.4219 13.1128 11.8594 13.8878C12.1719 14.4458 12.8906 14.6472 13.4531 14.3373C14.0156 14.0273 14.2187 13.3143 13.9062 12.7563C13.0312 11.1908 11.7969 10.3383 10.4219 10.3383C7.8125 10.3383 5.78125 13.5778 5.78125 17.7317C5.76562 21.8701 7.79688 25.1251 10.4062 25.1251Z" fill="black"/>
<path d="M89.5938 35.4479C95.4219 35.4479 100 27.667 100 17.7162C100 7.78086 95.4219 0 89.5938 0H10.4062C4.57812 0 0 7.78086 0 17.7162C0 27.636 4.5625 35.4169 10.375 35.4479C10.3906 35.4479 10.3906 35.4479 10.4062 35.4479H17.6094L21.3438 39.1523L9.9375 50.4671C9.28125 51.1181 8.90625 52.0016 8.90625 52.9316C8.90625 53.8616 9.26562 54.7451 9.9375 55.396L11.5312 56.977C12.1875 57.628 13.0781 58 14.0156 58C14.9531 58 15.8438 57.6435 16.5 56.977L27.9062 45.6622L39.3125 56.977C39.9688 57.628 40.8594 58 41.7969 58C42.7344 58 43.625 57.6435 44.2812 56.977L45.875 55.396C46.5312 54.7451 46.9062 53.8616 46.9062 52.9316C46.9062 52.0016 46.5469 51.1181 45.875 50.4671L34.4688 39.1523L38.2031 35.4479H60.3281L64.0625 39.1523L52.6562 50.4671C52 51.1181 51.625 52.0016 51.625 52.9316C51.625 53.8616 51.9844 54.7451 52.6562 55.396L54.25 56.977C54.9062 57.628 55.7969 58 56.7344 58C57.6719 58 58.5625 57.6435 59.2188 56.977L70.625 45.6622L82.0312 56.977C82.6875 57.628 83.5781 58 84.5156 58C85.4531 58 86.3438 57.6435 87 56.977L88.5938 55.396C89.25 54.7451 89.625 53.8616 89.625 52.9316C89.625 52.0016 89.2656 51.1181 88.5938 50.4671L77.1875 39.1523L80.9219 35.4479H89.5938ZM2.34375 17.7162C2.34375 9.37734 6.03125 2.32496 10.4062 2.32496H10.4219C14.7812 2.34046 18.4688 9.37734 18.4688 17.7162C18.4688 26.0705 14.7812 33.1229 10.4062 33.1229C6.03125 33.1229 2.34375 26.0705 2.34375 17.7162ZM32.2188 28.3645H23.75C23.1094 28.3645 22.5781 28.8915 22.5781 29.527C22.5781 30.1625 23.1094 30.6895 23.75 30.6895H29.875L27.4219 33.1229H18.1094C18.0938 33.1229 18.0938 33.1229 18.0781 33.1229H15.625C17.3438 31.4645 18.75 28.9845 19.6562 25.9931H34.625L32.2188 28.3645ZM14.8438 55.334C14.4062 55.768 13.625 55.768 13.1875 55.334L11.5938 53.7531C11.375 53.5361 11.25 53.2416 11.25 52.9316C11.25 52.6216 11.375 52.3271 11.5938 52.1101L23 40.7953L26.25 44.0192L14.8438 55.334ZM44.5469 52.9316C44.5469 53.2416 44.4219 53.5361 44.2031 53.7531L42.6094 55.334C42.1719 55.768 41.3906 55.768 40.9531 55.334L20.9219 35.4479H27.4219L44.2188 52.1101C44.4219 52.3271 44.5469 52.6216 44.5469 52.9316ZM29.5625 34.2854L40.9531 22.9861C41.4062 22.5366 42.1562 22.5366 42.6094 22.9861L44.2031 24.5671C44.6562 25.0166 44.6562 25.7606 44.2031 26.21L32.7969 37.5249L29.5625 34.2854ZM44.0625 29.6355H54.0469C54.6875 29.6355 55.2188 29.1085 55.2188 28.473C55.2188 27.8375 54.6875 27.3105 54.0469 27.3105H46.3125C46.6875 26.737 46.8906 26.086 46.8906 25.3886C46.8906 24.4586 46.5312 23.5751 45.8594 22.9241L44.2656 21.3431C42.8906 19.9792 40.6719 19.9792 39.2969 21.3431L36.9531 23.6681H20.2188C20.5938 21.8081 20.8125 19.8242 20.8125 17.7162C20.8125 16.6002 20.75 15.5307 20.6406 14.4922H40.7969C42.0469 14.4922 43.125 13.6088 43.3281 12.3998C43.8125 9.64083 46.4219 7.56387 49.4219 7.56387C51.2031 7.56387 52.8906 8.27686 54.0625 9.51684C54.5 9.98183 55.25 10.0128 55.7188 9.56333C56.1875 9.12934 56.2187 8.38535 55.7656 7.92036C54.1562 6.23089 51.8438 5.25441 49.4375 5.23891H49.4062C45.2188 5.25441 41.6875 8.09086 41.0156 12.0123C41 12.0898 40.9219 12.1673 40.7969 12.1673H20.2969C19.5 7.95136 17.8281 4.46392 15.6094 2.32496H89.5938C91.3906 2.32496 93.0625 3.53394 94.4219 5.5179H76.5625C75.9219 5.5179 75.3906 6.0449 75.3906 6.68038C75.3906 7.31587 75.9219 7.84286 76.5625 7.84286H95.7188C96.9219 10.5398 97.6562 13.9963 97.6562 17.7162C97.6562 18.5532 97.6094 19.3592 97.5469 20.1652H91.9375C91.2969 20.1652 90.7656 20.6921 90.7656 21.3276C90.7656 21.9631 91.2969 22.4901 91.9375 22.4901H97.2344C96.1563 28.5815 93.0938 33.1229 89.5938 33.1229H83.2656L88.5938 27.8375C89.9688 26.4735 89.9688 24.2726 88.5938 22.9086L87 21.3276C85.625 19.9637 83.4062 19.9637 82.0312 21.3276L76.0156 27.295H62.0781C61.4375 27.295 60.9062 27.822 60.9062 28.4575C60.9062 29.093 61.4375 29.62 62.0781 29.62H73.6719L70.1562 33.1074H60.8437C60.8281 33.1074 60.8281 33.1074 60.8125 33.1074H40.5469L44.0625 29.6355ZM57.5625 55.334C57.125 55.768 56.3438 55.768 55.9062 55.334L54.3125 53.7531C54.0937 53.5361 53.9688 53.2416 53.9688 52.9316C53.9688 52.6216 54.0937 52.3271 54.3125 52.1101L65.7188 40.7953L68.9688 44.0192L57.5625 55.334ZM87.2656 52.9316C87.2656 53.2416 87.1406 53.5361 86.9219 53.7531L85.3281 55.334C84.8906 55.768 84.1094 55.768 83.6719 55.334L63.6406 35.4479H70.1406L86.9375 52.1101C87.1562 52.3271 87.2656 52.6216 87.2656 52.9316ZM72.2812 34.2854L83.6875 22.9706C84.1406 22.5211 84.8906 22.5211 85.3438 22.9706L86.9375 24.5516C87.3906 25.0011 87.3906 25.7451 86.9375 26.1945L75.5312 37.5094L72.2812 34.2854Z" fill="black"/>
<path d="M35 17.9177H25.3281C24.6875 17.9177 24.1562 18.4447 24.1562 19.0802C24.1562 19.7157 24.6875 20.2427 25.3281 20.2427H35C35.6406 20.2427 36.1719 19.7157 36.1719 19.0802C36.1719 18.4447 35.6406 17.9177 35 17.9177Z" fill="black"/>
<path d="M93.6094 13.3298C93.6094 12.6943 93.0781 12.1673 92.4375 12.1673H58.0938C56.8438 12.1673 55.7656 13.0508 55.5625 14.2598C55.0781 17.0187 52.4531 19.0957 49.4375 19.0957C48.7969 19.0957 48.2656 19.6227 48.2656 20.2582C48.2656 20.8936 48.7969 21.4206 49.4375 21.4206C53.6406 21.4206 57.1875 18.5687 57.8594 14.6472C57.875 14.5542 57.9687 14.4922 58.0781 14.4922H92.4219C93.0781 14.4922 93.6094 13.9653 93.6094 13.3298Z" fill="black"/>
<path d="M52.9688 13.3298C52.9688 11.4698 51.3906 9.95083 49.4531 9.95083C47.5156 9.95083 45.9375 11.4698 45.9375 13.3298C45.9375 15.1897 47.5156 16.7087 49.4531 16.7087C51.375 16.6932 52.9688 15.1897 52.9688 13.3298ZM48.2813 13.3298C48.2813 12.7563 48.7969 12.2758 49.4531 12.2758C50.1094 12.2758 50.625 12.7408 50.625 13.3298C50.625 13.9188 50.0938 14.3838 49.4531 14.3838C48.7969 14.3683 48.2813 13.9033 48.2813 13.3298Z" fill="black"/>
<path d="M36.875 5.7194H23.75C23.1094 5.7194 22.5781 6.24639 22.5781 6.88188C22.5781 7.51737 23.1094 8.04436 23.75 8.04436H36.875C37.5156 8.04436 38.0469 7.51737 38.0469 6.88188C38.0469 6.24639 37.5156 5.7194 36.875 5.7194Z" fill="black"/>
<path d="M76.8125 20.1652H61.6719C61.0313 20.1652 60.5 20.6921 60.5 21.3276C60.5 21.9631 61.0313 22.4901 61.6719 22.4901H76.8125C77.4531 22.4901 77.9844 21.9631 77.9844 21.3276C77.9844 20.6921 77.4531 20.1652 76.8125 20.1652Z" fill="black"/>
<path d="M62.6875 7.84286H69.9219C70.5625 7.84286 71.0938 7.31587 71.0938 6.68038C71.0938 6.0449 70.5625 5.5179 69.9219 5.5179H62.6875C62.0469 5.5179 61.5156 6.0449 61.5156 6.68038C61.5156 7.31587 62.0312 7.84286 62.6875 7.84286Z" fill="black"/>
<path d="M6.70312 9.40834C6.89062 9.51684 7.09375 9.57883 7.3125 9.57883C7.70312 9.57883 8.09375 9.37734 8.3125 9.02084C8.98437 7.90486 9.71875 7.30037 10.3906 7.30037C11.2969 7.30037 12.0781 8.35435 12.4531 8.97434C12.7969 9.51684 13.5156 9.70283 14.0625 9.36184C14.6094 9.03634 14.7969 8.30785 14.4531 7.76536C13.0312 5.4559 11.4531 4.95991 10.375 4.95991C9.29688 4.95991 7.70312 5.4559 6.28125 7.81186C5.96875 8.36985 6.15625 9.08284 6.70312 9.40834Z" stroke="white" stroke-width="0.8" mask="url(#path-1-inside-1_103_5632)"/>
<path d="M14.7344 27.2485C15.0469 26.6905 14.8281 25.9775 14.2656 25.6676C13.7031 25.3576 12.9844 25.5746 12.6719 26.1325C11.9688 27.419 11.1406 28.163 10.4062 28.163C9.67188 28.163 8.82812 27.4035 8.125 26.086C7.8125 25.5281 7.10938 25.3111 6.53125 25.6056C5.95313 25.9001 5.75 26.613 6.04688 27.1865C7.20312 29.31 8.75 30.488 10.4062 30.488C11.5625 30.488 13.2656 29.93 14.7344 27.2485Z" stroke="white" stroke-width="0.8" mask="url(#path-1-inside-1_103_5632)"/>
<path d="M10.4062 25.1251C12.8438 25.1251 14.7969 22.3351 15.0312 18.4912C15.0781 17.8557 14.5781 17.2977 13.9375 17.2667C13.2812 17.2357 12.7344 17.7162 12.7031 18.3517C12.5469 20.9711 11.375 22.8001 10.4219 22.8001C9.48438 22.8001 8.125 20.8316 8.125 17.7317C8.125 14.6317 9.48438 12.6633 10.4219 12.6633C10.8906 12.6633 11.4219 13.1128 11.8594 13.8878C12.1719 14.4458 12.8906 14.6472 13.4531 14.3373C14.0156 14.0273 14.2187 13.3143 13.9062 12.7563C13.0312 11.1908 11.7969 10.3383 10.4219 10.3383C7.8125 10.3383 5.78125 13.5778 5.78125 17.7317C5.76562 21.8701 7.79688 25.1251 10.4062 25.1251Z" stroke="white" stroke-width="0.8" mask="url(#path-1-inside-1_103_5632)"/>
<path d="M89.5938 35.4479C95.4219 35.4479 100 27.667 100 17.7162C100 7.78086 95.4219 0 89.5938 0H10.4062C4.57812 0 0 7.78086 0 17.7162C0 27.636 4.5625 35.4169 10.375 35.4479C10.3906 35.4479 10.3906 35.4479 10.4062 35.4479H17.6094L21.3438 39.1523L9.9375 50.4671C9.28125 51.1181 8.90625 52.0016 8.90625 52.9316C8.90625 53.8616 9.26562 54.7451 9.9375 55.396L11.5312 56.977C12.1875 57.628 13.0781 58 14.0156 58C14.9531 58 15.8438 57.6435 16.5 56.977L27.9062 45.6622L39.3125 56.977C39.9688 57.628 40.8594 58 41.7969 58C42.7344 58 43.625 57.6435 44.2812 56.977L45.875 55.396C46.5312 54.7451 46.9062 53.8616 46.9062 52.9316C46.9062 52.0016 46.5469 51.1181 45.875 50.4671L34.4688 39.1523L38.2031 35.4479H60.3281L64.0625 39.1523L52.6562 50.4671C52 51.1181 51.625 52.0016 51.625 52.9316C51.625 53.8616 51.9844 54.7451 52.6562 55.396L54.25 56.977C54.9062 57.628 55.7969 58 56.7344 58C57.6719 58 58.5625 57.6435 59.2188 56.977L70.625 45.6622L82.0312 56.977C82.6875 57.628 83.5781 58 84.5156 58C85.4531 58 86.3438 57.6435 87 56.977L88.5938 55.396C89.25 54.7451 89.625 53.8616 89.625 52.9316C89.625 52.0016 89.2656 51.1181 88.5938 50.4671L77.1875 39.1523L80.9219 35.4479H89.5938ZM2.34375 17.7162C2.34375 9.37734 6.03125 2.32496 10.4062 2.32496H10.4219C14.7812 2.34046 18.4688 9.37734 18.4688 17.7162C18.4688 26.0705 14.7812 33.1229 10.4062 33.1229C6.03125 33.1229 2.34375 26.0705 2.34375 17.7162ZM32.2188 28.3645H23.75C23.1094 28.3645 22.5781 28.8915 22.5781 29.527C22.5781 30.1625 23.1094 30.6895 23.75 30.6895H29.875L27.4219 33.1229H18.1094C18.0938 33.1229 18.0938 33.1229 18.0781 33.1229H15.625C17.3438 31.4645 18.75 28.9845 19.6562 25.9931H34.625L32.2188 28.3645ZM14.8438 55.334C14.4062 55.768 13.625 55.768 13.1875 55.334L11.5938 53.7531C11.375 53.5361 11.25 53.2416 11.25 52.9316C11.25 52.6216 11.375 52.3271 11.5938 52.1101L23 40.7953L26.25 44.0192L14.8438 55.334ZM44.5469 52.9316C44.5469 53.2416 44.4219 53.5361 44.2031 53.7531L42.6094 55.334C42.1719 55.768 41.3906 55.768 40.9531 55.334L20.9219 35.4479H27.4219L44.2188 52.1101C44.4219 52.3271 44.5469 52.6216 44.5469 52.9316ZM29.5625 34.2854L40.9531 22.9861C41.4062 22.5366 42.1562 22.5366 42.6094 22.9861L44.2031 24.5671C44.6562 25.0166 44.6562 25.7606 44.2031 26.21L32.7969 37.5249L29.5625 34.2854ZM44.0625 29.6355H54.0469C54.6875 29.6355 55.2188 29.1085 55.2188 28.473C55.2188 27.8375 54.6875 27.3105 54.0469 27.3105H46.3125C46.6875 26.737 46.8906 26.086 46.8906 25.3886C46.8906 24.4586 46.5312 23.5751 45.8594 22.9241L44.2656 21.3431C42.8906 19.9792 40.6719 19.9792 39.2969 21.3431L36.9531 23.6681H20.2188C20.5938 21.8081 20.8125 19.8242 20.8125 17.7162C20.8125 16.6002 20.75 15.5307 20.6406 14.4922H40.7969C42.0469 14.4922 43.125 13.6088 43.3281 12.3998C43.8125 9.64083 46.4219 7.56387 49.4219 7.56387C51.2031 7.56387 52.8906 8.27686 54.0625 9.51684C54.5 9.98183 55.25 10.0128 55.7188 9.56333C56.1875 9.12934 56.2187 8.38535 55.7656 7.92036C54.1562 6.23089 51.8438 5.25441 49.4375 5.23891H49.4062C45.2188 5.25441 41.6875 8.09086 41.0156 12.0123C41 12.0898 40.9219 12.1673 40.7969 12.1673H20.2969C19.5 7.95136 17.8281 4.46392 15.6094 2.32496H89.5938C91.3906 2.32496 93.0625 3.53394 94.4219 5.5179H76.5625C75.9219 5.5179 75.3906 6.0449 75.3906 6.68038C75.3906 7.31587 75.9219 7.84286 76.5625 7.84286H95.7188C96.9219 10.5398 97.6562 13.9963 97.6562 17.7162C97.6562 18.5532 97.6094 19.3592 97.5469 20.1652H91.9375C91.2969 20.1652 90.7656 20.6921 90.7656 21.3276C90.7656 21.9631 91.2969 22.4901 91.9375 22.4901H97.2344C96.1563 28.5815 93.0938 33.1229 89.5938 33.1229H83.2656L88.5938 27.8375C89.9688 26.4735 89.9688 24.2726 88.5938 22.9086L87 21.3276C85.625 19.9637 83.4062 19.9637 82.0312 21.3276L76.0156 27.295H62.0781C61.4375 27.295 60.9062 27.822 60.9062 28.4575C60.9062 29.093 61.4375 29.62 62.0781 29.62H73.6719L70.1562 33.1074H60.8437C60.8281 33.1074 60.8281 33.1074 60.8125 33.1074H40.5469L44.0625 29.6355ZM57.5625 55.334C57.125 55.768 56.3438 55.768 55.9062 55.334L54.3125 53.7531C54.0937 53.5361 53.9688 53.2416 53.9688 52.9316C53.9688 52.6216 54.0937 52.3271 54.3125 52.1101L65.7188 40.7953L68.9688 44.0192L57.5625 55.334ZM87.2656 52.9316C87.2656 53.2416 87.1406 53.5361 86.9219 53.7531L85.3281 55.334C84.8906 55.768 84.1094 55.768 83.6719 55.334L63.6406 35.4479H70.1406L86.9375 52.1101C87.1562 52.3271 87.2656 52.6216 87.2656 52.9316ZM72.2812 34.2854L83.6875 22.9706C84.1406 22.5211 84.8906 22.5211 85.3438 22.9706L86.9375 24.5516C87.3906 25.0011 87.3906 25.7451 86.9375 26.1945L75.5312 37.5094L72.2812 34.2854Z" stroke="white" stroke-width="0.8" mask="url(#path-1-inside-1_103_5632)"/>
<path d="M35 17.9177H25.3281C24.6875 17.9177 24.1562 18.4447 24.1562 19.0802C24.1562 19.7157 24.6875 20.2427 25.3281 20.2427H35C35.6406 20.2427 36.1719 19.7157 36.1719 19.0802C36.1719 18.4447 35.6406 17.9177 35 17.9177Z" stroke="white" stroke-width="0.8" mask="url(#path-1-inside-1_103_5632)"/>
<path d="M93.6094 13.3298C93.6094 12.6943 93.0781 12.1673 92.4375 12.1673H58.0938C56.8438 12.1673 55.7656 13.0508 55.5625 14.2598C55.0781 17.0187 52.4531 19.0957 49.4375 19.0957C48.7969 19.0957 48.2656 19.6227 48.2656 20.2582C48.2656 20.8936 48.7969 21.4206 49.4375 21.4206C53.6406 21.4206 57.1875 18.5687 57.8594 14.6472C57.875 14.5542 57.9687 14.4922 58.0781 14.4922H92.4219C93.0781 14.4922 93.6094 13.9653 93.6094 13.3298Z" stroke="white" stroke-width="0.8" mask="url(#path-1-inside-1_103_5632)"/>
<path d="M52.9688 13.3298C52.9688 11.4698 51.3906 9.95083 49.4531 9.95083C47.5156 9.95083 45.9375 11.4698 45.9375 13.3298C45.9375 15.1897 47.5156 16.7087 49.4531 16.7087C51.375 16.6932 52.9688 15.1897 52.9688 13.3298ZM48.2813 13.3298C48.2813 12.7563 48.7969 12.2758 49.4531 12.2758C50.1094 12.2758 50.625 12.7408 50.625 13.3298C50.625 13.9188 50.0938 14.3838 49.4531 14.3838C48.7969 14.3683 48.2813 13.9033 48.2813 13.3298Z" stroke="white" stroke-width="0.8" mask="url(#path-1-inside-1_103_5632)"/>
<path d="M36.875 5.7194H23.75C23.1094 5.7194 22.5781 6.24639 22.5781 6.88188C22.5781 7.51737 23.1094 8.04436 23.75 8.04436H36.875C37.5156 8.04436 38.0469 7.51737 38.0469 6.88188C38.0469 6.24639 37.5156 5.7194 36.875 5.7194Z" stroke="white" stroke-width="0.8" mask="url(#path-1-inside-1_103_5632)"/>
<path d="M76.8125 20.1652H61.6719C61.0313 20.1652 60.5 20.6921 60.5 21.3276C60.5 21.9631 61.0313 22.4901 61.6719 22.4901H76.8125C77.4531 22.4901 77.9844 21.9631 77.9844 21.3276C77.9844 20.6921 77.4531 20.1652 76.8125 20.1652Z" stroke="white" stroke-width="0.8" mask="url(#path-1-inside-1_103_5632)"/>
<path d="M62.6875 7.84286H69.9219C70.5625 7.84286 71.0938 7.31587 71.0938 6.68038C71.0938 6.0449 70.5625 5.5179 69.9219 5.5179H62.6875C62.0469 5.5179 61.5156 6.0449 61.5156 6.68038C61.5156 7.31587 62.0312 7.84286 62.6875 7.84286Z" stroke="white" stroke-width="0.8" mask="url(#path-1-inside-1_103_5632)"/>
</svg>
