<svg width="110" height="64" viewBox="0 0 110 64" fill="none" xmlns="http://www.w3.org/2000/svg">
<mask id="path-1-inside-1_103_5641" fill="white">
<path d="M6.18181 49.144C6.09315 44.2634 7.97189 40.8413 9.26732 40.9117C9.89637 40.9117 10.6178 41.6353 11.1974 42.848C11.4214 43.3145 11.9786 43.5125 12.4434 43.2872C12.9081 43.0629 13.1032 42.5016 12.8801 42.0342C11.9552 40.0989 10.6719 39.0345 9.26732 39.0345C6.4422 39.0345 4.31146 43.3116 4.31146 48.9835C4.2424 49.5777 4.61759 50.1971 5.25317 50.1849C5.80475 50.1887 6.24527 49.6959 6.18181 49.144Z"/>
<path d="M14.2232 48.9826C14.0795 47.9014 14.5882 45.6666 13.0342 45.7145C12.5228 45.7792 12.1597 46.2485 12.225 46.7629C12.9082 51.0813 11.2395 57.0977 9.26832 57.0545C8.63553 57.0545 7.91876 56.3383 7.34851 55.1388C6.80066 54.0341 5.15337 54.8272 5.66389 55.9488C6.57853 57.872 7.85902 58.9317 9.26832 58.9317C12.0934 58.9317 14.2242 54.6545 14.2242 48.9826H14.2232Z"/>
<path d="M26.0642 32.9891C28.5823 32.9891 30.5487 29.6365 30.8455 24.8356C30.8773 24.3175 30.4862 23.8726 29.972 23.8397C29.4334 23.8003 29.0144 24.2011 28.9817 24.7183C28.7447 28.5421 27.2822 31.1119 26.0633 31.1119C24.6671 31.1119 23.1056 27.917 23.1056 23.6408C23.1056 19.3646 24.6671 16.1696 26.0633 16.1696C26.7465 16.1696 27.5248 17.0181 28.0932 18.3847C28.2939 18.8643 28.8408 19.0877 29.3149 18.8887C29.7909 18.6878 30.0149 18.1378 29.8161 17.6601C28.9117 15.4882 27.5799 14.2915 26.0633 14.2915C19.6655 14.4323 19.6683 32.8493 26.0633 32.9882L26.0642 32.9891Z"/>
<path d="M100.731 33.9652H92.5902C97.6002 26.158 94.9916 8.77907 85.7986 8.62326H59.7985L61.2386 5.07633C61.2517 5.04254 61.2722 5.01345 61.2825 4.97872C62.5499 0.930586 54.2808 -2.04756 52.5458 1.75467C50.4953 5.04724 49.1859 7.19285 48.3394 8.62326H26.0679C16.8142 8.81849 14.3129 26.1993 19.2464 33.9652H9.26843C-3.07641 34.4035 -3.10254 63.5495 9.26843 64C24.1509 63.9887 100.732 64 100.732 64C113.071 63.5682 113.108 34.4166 100.731 33.9652ZM52.7446 15.2309L54.4404 12.1223C55.0116 11.0289 53.4129 10.1503 52.8034 11.2185L50.892 14.7203C49.4724 14.0934 48.7249 13.1163 48.6735 11.8023C49.0394 11.0533 50.9639 7.86488 52.9835 4.59484C54.026 6.10221 56.5609 7.15343 58.4816 6.89719C57.8759 8.39049 56.1101 12.739 55.4792 14.2942C55.2496 14.9606 54.1567 15.3886 52.7437 15.23L52.7446 15.2309ZM55.8217 1.86636C57.2842 1.73308 59.8508 3.26673 59.5185 4.34705C59.2703 5.03316 57.9356 5.29878 56.4134 4.79288C54.082 3.96035 53.1609 1.90484 55.8217 1.86636ZM47.2633 10.5004C46.8078 11.347 46.805 11.4935 46.805 11.6314C46.6035 14.771 49.9083 17.0377 53.0405 17.1456C53.1263 17.1456 53.2915 17.1485 53.3727 17.1456H77.0759C78.2892 17.1297 78.3144 15.2901 77.0759 15.2685H57.0835C57.1339 15.1662 57.1899 15.0667 57.2273 14.9569L59.0369 10.5004H85.7995C89.8472 10.5004 93.2659 16.5177 93.2659 23.6407C93.2659 27.6541 92.1796 31.4638 90.3587 33.9652H41.0008C38.9298 33.9652 37.0427 35.0107 35.5102 36.7809H30.6449C36.94 31.4507 36.9363 15.826 30.6449 10.5004H47.2642H47.2633ZM48.4663 48.9826C48.4663 56.1055 45.0476 62.1228 40.9999 62.1228C36.9521 62.1228 33.5334 56.1055 33.5334 48.9826C33.5334 41.8596 36.9521 35.8423 40.9999 35.8423C45.0476 35.8423 48.4663 41.8596 48.4663 48.9826ZM26.067 10.5004C30.1147 10.5004 33.5334 16.5177 33.5334 23.6407C33.5334 30.7636 30.1147 36.7809 26.067 36.7809C22.0192 36.7809 18.6006 30.7636 18.6006 23.6407C18.6006 16.5177 22.0192 10.5004 26.067 10.5004ZM1.80105 48.9826C1.80105 41.8596 5.21975 35.8423 9.26749 35.8423C13.3152 35.8423 16.7339 41.8596 16.7339 48.9826C16.7339 56.1055 13.3152 62.1228 9.26749 62.1228C5.21975 62.1228 1.80105 56.1055 1.80105 48.9826ZM13.8444 62.1228C20.1396 56.7926 20.1358 41.1679 13.8444 35.8423H20.5764C22.1088 37.6125 23.996 38.6581 26.067 38.6581H34.1784C30.2174 44.9739 31.0257 57.6138 36.423 62.1228H13.8444ZM100.731 62.1228H45.5768C51.872 56.7926 51.8682 41.1679 45.5768 35.8423H100.731C104.779 35.8423 108.198 41.8596 108.198 48.9826C108.198 56.1055 104.779 62.1228 100.731 62.1228Z"/>
<path d="M36.1711 50.6815C36.3213 51.9045 38.1403 51.7064 38.0265 50.4759C37.5066 46.5705 39.2192 40.9981 41 41.1736C42.4363 41.1736 44.0426 44.5131 44.0426 48.9827C44.0426 53.4522 42.4363 56.7917 41 56.7917C40.3588 56.7917 39.643 56.0709 39.083 54.8648C38.5454 53.7563 36.8916 54.5325 37.3918 55.6588C38.2915 57.5998 39.573 58.6689 41 58.6689C43.799 58.6689 45.9092 54.5044 45.9092 48.9827C45.9092 43.4609 43.799 39.2964 41 39.2964C37.7073 39.1115 35.5597 45.5455 36.1711 50.6815Z"/>
<path d="M100.732 56.4913H90.2692C89.0456 56.511 89.04 58.3478 90.2692 58.3685H100.732C101.955 58.3488 101.961 56.512 100.732 56.4913Z"/>
<path d="M83.8384 56.4913H54.0659C52.8489 56.5082 52.8311 58.3469 54.0659 58.3685H83.8384C85.0554 58.3516 85.0731 56.5129 83.8384 56.4913Z"/>
<path d="M100.731 50.8598H75.0653C73.8473 50.8776 73.8315 52.7163 75.0653 52.737H100.731C101.949 52.7191 101.965 50.8804 100.731 50.8598Z"/>
<path d="M54.0661 52.737H66.1525C67.376 52.7182 67.3825 50.8804 66.1525 50.8598H54.0661C52.8426 50.8785 52.836 52.7163 54.0661 52.737Z"/>
<path d="M103.531 45.2282H94.2356C93.7195 45.2282 93.3023 45.6478 93.3023 46.1668C93.3023 46.6859 93.7195 47.1054 94.2356 47.1054H103.531C104.756 47.0857 104.761 45.2489 103.531 45.2282Z"/>
<path d="M54.0661 47.1054H62.1579C63.3824 47.0857 63.3871 45.2489 62.1579 45.2282H54.0661C52.8416 45.248 52.837 47.0848 54.0661 47.1054Z"/>
<path d="M86.7223 45.2282H68.7935C68.2774 45.2282 67.8602 45.6478 67.8602 46.1668C67.8602 46.6859 68.2774 47.1054 68.7935 47.1054H86.7223C87.943 47.0867 87.9533 45.2489 86.7223 45.2282Z"/>
<path d="M64.8216 41.4739H87.4431C88.6629 41.4561 88.676 39.6174 87.4431 39.5967H64.8216C63.6018 39.6145 63.5887 41.4532 64.8216 41.4739Z"/>
<path d="M87.3947 28.3336H60.3288C59.1108 28.3515 59.095 30.1902 60.3288 30.2108H87.3947C88.6126 30.193 88.6285 28.3543 87.3947 28.3336Z"/>
<path d="M52.1996 28.3336H40.7293C39.5057 28.3534 39.5001 30.1902 40.7293 30.2108H52.1996C53.4232 30.1911 53.4288 28.3543 52.1996 28.3336Z"/>
<path d="M76.0549 23.6407H88.3036C89.5271 23.6219 89.5337 21.7842 88.3036 21.7635H76.0549C74.8313 21.7823 74.8248 23.6201 76.0549 23.6407Z"/>
<path d="M39.7961 23.6407H68.9619C70.1789 23.6229 70.1966 21.7851 68.9619 21.7635H39.7961C38.5791 21.7814 38.5613 23.6191 39.7961 23.6407Z"/>
<path d="M82.1492 17.1456H84.5944C85.8208 17.125 85.8217 15.2891 84.5944 15.2685H82.1492C80.9228 15.2891 80.9219 17.125 82.1492 17.1456Z"/>
<path d="M22.1861 44.0944H28.4514C29.6768 44.0747 29.6796 42.2379 28.4514 42.2172H22.1861C20.9607 42.237 20.9579 44.0738 22.1861 44.0944Z"/>
<path d="M22.1861 50.6645H27.6189C28.8443 50.6448 28.8471 48.808 27.6189 48.7874H22.1861C20.9607 48.8071 20.9579 50.6439 22.1861 50.6645Z"/>
<path d="M29.3383 56.0539H20.5232C19.2987 56.0736 19.294 57.9104 20.5232 57.931H29.3383C30.5628 57.9113 30.5674 56.0745 29.3383 56.0539Z"/>
<path d="M41.9331 48.4617V46.1668C41.9331 45.6478 41.5159 45.2282 40.9998 45.2282C40.4837 45.2282 40.0665 45.6478 40.0665 46.1668V48.4617C40.0871 49.695 41.9126 49.6959 41.9331 48.4617Z"/>
</mask>
<path d="M6.18181 49.144C6.09315 44.2634 7.97189 40.8413 9.26732 40.9117C9.89637 40.9117 10.6178 41.6353 11.1974 42.848C11.4214 43.3145 11.9786 43.5125 12.4434 43.2872C12.9081 43.0629 13.1032 42.5016 12.8801 42.0342C11.9552 40.0989 10.6719 39.0345 9.26732 39.0345C6.4422 39.0345 4.31146 43.3116 4.31146 48.9835C4.2424 49.5777 4.61759 50.1971 5.25317 50.1849C5.80475 50.1887 6.24527 49.6959 6.18181 49.144Z" fill="black"/>
<path d="M14.2232 48.9826C14.0795 47.9014 14.5882 45.6666 13.0342 45.7145C12.5228 45.7792 12.1597 46.2485 12.225 46.7629C12.9082 51.0813 11.2395 57.0977 9.26832 57.0545C8.63553 57.0545 7.91876 56.3383 7.34851 55.1388C6.80066 54.0341 5.15337 54.8272 5.66389 55.9488C6.57853 57.872 7.85902 58.9317 9.26832 58.9317C12.0934 58.9317 14.2242 54.6545 14.2242 48.9826H14.2232Z" fill="black"/>
<path d="M26.0642 32.9891C28.5823 32.9891 30.5487 29.6365 30.8455 24.8356C30.8773 24.3175 30.4862 23.8726 29.972 23.8397C29.4334 23.8003 29.0144 24.2011 28.9817 24.7183C28.7447 28.5421 27.2822 31.1119 26.0633 31.1119C24.6671 31.1119 23.1056 27.917 23.1056 23.6408C23.1056 19.3646 24.6671 16.1696 26.0633 16.1696C26.7465 16.1696 27.5248 17.0181 28.0932 18.3847C28.2939 18.8643 28.8408 19.0877 29.3149 18.8887C29.7909 18.6878 30.0149 18.1378 29.8161 17.6601C28.9117 15.4882 27.5799 14.2915 26.0633 14.2915C19.6655 14.4323 19.6683 32.8493 26.0633 32.9882L26.0642 32.9891Z" fill="black"/>
<path d="M100.731 33.9652H92.5902C97.6002 26.158 94.9916 8.77907 85.7986 8.62326H59.7985L61.2386 5.07633C61.2517 5.04254 61.2722 5.01345 61.2825 4.97872C62.5499 0.930586 54.2808 -2.04756 52.5458 1.75467C50.4953 5.04724 49.1859 7.19285 48.3394 8.62326H26.0679C16.8142 8.81849 14.3129 26.1993 19.2464 33.9652H9.26843C-3.07641 34.4035 -3.10254 63.5495 9.26843 64C24.1509 63.9887 100.732 64 100.732 64C113.071 63.5682 113.108 34.4166 100.731 33.9652ZM52.7446 15.2309L54.4404 12.1223C55.0116 11.0289 53.4129 10.1503 52.8034 11.2185L50.892 14.7203C49.4724 14.0934 48.7249 13.1163 48.6735 11.8023C49.0394 11.0533 50.9639 7.86488 52.9835 4.59484C54.026 6.10221 56.5609 7.15343 58.4816 6.89719C57.8759 8.39049 56.1101 12.739 55.4792 14.2942C55.2496 14.9606 54.1567 15.3886 52.7437 15.23L52.7446 15.2309ZM55.8217 1.86636C57.2842 1.73308 59.8508 3.26673 59.5185 4.34705C59.2703 5.03316 57.9356 5.29878 56.4134 4.79288C54.082 3.96035 53.1609 1.90484 55.8217 1.86636ZM47.2633 10.5004C46.8078 11.347 46.805 11.4935 46.805 11.6314C46.6035 14.771 49.9083 17.0377 53.0405 17.1456C53.1263 17.1456 53.2915 17.1485 53.3727 17.1456H77.0759C78.2892 17.1297 78.3144 15.2901 77.0759 15.2685H57.0835C57.1339 15.1662 57.1899 15.0667 57.2273 14.9569L59.0369 10.5004H85.7995C89.8472 10.5004 93.2659 16.5177 93.2659 23.6407C93.2659 27.6541 92.1796 31.4638 90.3587 33.9652H41.0008C38.9298 33.9652 37.0427 35.0107 35.5102 36.7809H30.6449C36.94 31.4507 36.9363 15.826 30.6449 10.5004H47.2642H47.2633ZM48.4663 48.9826C48.4663 56.1055 45.0476 62.1228 40.9999 62.1228C36.9521 62.1228 33.5334 56.1055 33.5334 48.9826C33.5334 41.8596 36.9521 35.8423 40.9999 35.8423C45.0476 35.8423 48.4663 41.8596 48.4663 48.9826ZM26.067 10.5004C30.1147 10.5004 33.5334 16.5177 33.5334 23.6407C33.5334 30.7636 30.1147 36.7809 26.067 36.7809C22.0192 36.7809 18.6006 30.7636 18.6006 23.6407C18.6006 16.5177 22.0192 10.5004 26.067 10.5004ZM1.80105 48.9826C1.80105 41.8596 5.21975 35.8423 9.26749 35.8423C13.3152 35.8423 16.7339 41.8596 16.7339 48.9826C16.7339 56.1055 13.3152 62.1228 9.26749 62.1228C5.21975 62.1228 1.80105 56.1055 1.80105 48.9826ZM13.8444 62.1228C20.1396 56.7926 20.1358 41.1679 13.8444 35.8423H20.5764C22.1088 37.6125 23.996 38.6581 26.067 38.6581H34.1784C30.2174 44.9739 31.0257 57.6138 36.423 62.1228H13.8444ZM100.731 62.1228H45.5768C51.872 56.7926 51.8682 41.1679 45.5768 35.8423H100.731C104.779 35.8423 108.198 41.8596 108.198 48.9826C108.198 56.1055 104.779 62.1228 100.731 62.1228Z" fill="black"/>
<path d="M36.1711 50.6815C36.3213 51.9045 38.1403 51.7064 38.0265 50.4759C37.5066 46.5705 39.2192 40.9981 41 41.1736C42.4363 41.1736 44.0426 44.5131 44.0426 48.9827C44.0426 53.4522 42.4363 56.7917 41 56.7917C40.3588 56.7917 39.643 56.0709 39.083 54.8648C38.5454 53.7563 36.8916 54.5325 37.3918 55.6588C38.2915 57.5998 39.573 58.6689 41 58.6689C43.799 58.6689 45.9092 54.5044 45.9092 48.9827C45.9092 43.4609 43.799 39.2964 41 39.2964C37.7073 39.1115 35.5597 45.5455 36.1711 50.6815Z" fill="black"/>
<path d="M100.732 56.4913H90.2692C89.0456 56.511 89.04 58.3478 90.2692 58.3685H100.732C101.955 58.3488 101.961 56.512 100.732 56.4913Z" fill="black"/>
<path d="M83.8384 56.4913H54.0659C52.8489 56.5082 52.8311 58.3469 54.0659 58.3685H83.8384C85.0554 58.3516 85.0731 56.5129 83.8384 56.4913Z" fill="black"/>
<path d="M100.731 50.8598H75.0653C73.8473 50.8776 73.8315 52.7163 75.0653 52.737H100.731C101.949 52.7191 101.965 50.8804 100.731 50.8598Z" fill="black"/>
<path d="M54.0661 52.737H66.1525C67.376 52.7182 67.3825 50.8804 66.1525 50.8598H54.0661C52.8426 50.8785 52.836 52.7163 54.0661 52.737Z" fill="black"/>
<path d="M103.531 45.2282H94.2356C93.7195 45.2282 93.3023 45.6478 93.3023 46.1668C93.3023 46.6859 93.7195 47.1054 94.2356 47.1054H103.531C104.756 47.0857 104.761 45.2489 103.531 45.2282Z" fill="black"/>
<path d="M54.0661 47.1054H62.1579C63.3824 47.0857 63.3871 45.2489 62.1579 45.2282H54.0661C52.8416 45.248 52.837 47.0848 54.0661 47.1054Z" fill="black"/>
<path d="M86.7223 45.2282H68.7935C68.2774 45.2282 67.8602 45.6478 67.8602 46.1668C67.8602 46.6859 68.2774 47.1054 68.7935 47.1054H86.7223C87.943 47.0867 87.9533 45.2489 86.7223 45.2282Z" fill="black"/>
<path d="M64.8216 41.4739H87.4431C88.6629 41.4561 88.676 39.6174 87.4431 39.5967H64.8216C63.6018 39.6145 63.5887 41.4532 64.8216 41.4739Z" fill="black"/>
<path d="M87.3947 28.3336H60.3288C59.1108 28.3515 59.095 30.1902 60.3288 30.2108H87.3947C88.6126 30.193 88.6285 28.3543 87.3947 28.3336Z" fill="black"/>
<path d="M52.1996 28.3336H40.7293C39.5057 28.3534 39.5001 30.1902 40.7293 30.2108H52.1996C53.4232 30.1911 53.4288 28.3543 52.1996 28.3336Z" fill="black"/>
<path d="M76.0549 23.6407H88.3036C89.5271 23.6219 89.5337 21.7842 88.3036 21.7635H76.0549C74.8313 21.7823 74.8248 23.6201 76.0549 23.6407Z" fill="black"/>
<path d="M39.7961 23.6407H68.9619C70.1789 23.6229 70.1966 21.7851 68.9619 21.7635H39.7961C38.5791 21.7814 38.5613 23.6191 39.7961 23.6407Z" fill="black"/>
<path d="M82.1492 17.1456H84.5944C85.8208 17.125 85.8217 15.2891 84.5944 15.2685H82.1492C80.9228 15.2891 80.9219 17.125 82.1492 17.1456Z" fill="black"/>
<path d="M22.1861 44.0944H28.4514C29.6768 44.0747 29.6796 42.2379 28.4514 42.2172H22.1861C20.9607 42.237 20.9579 44.0738 22.1861 44.0944Z" fill="black"/>
<path d="M22.1861 50.6645H27.6189C28.8443 50.6448 28.8471 48.808 27.6189 48.7874H22.1861C20.9607 48.8071 20.9579 50.6439 22.1861 50.6645Z" fill="black"/>
<path d="M29.3383 56.0539H20.5232C19.2987 56.0736 19.294 57.9104 20.5232 57.931H29.3383C30.5628 57.9113 30.5674 56.0745 29.3383 56.0539Z" fill="black"/>
<path d="M41.9331 48.4617V46.1668C41.9331 45.6478 41.5159 45.2282 40.9998 45.2282C40.4837 45.2282 40.0665 45.6478 40.0665 46.1668V48.4617C40.0871 49.695 41.9126 49.6959 41.9331 48.4617Z" fill="black"/>
<path d="M6.18181 49.144C6.09315 44.2634 7.97189 40.8413 9.26732 40.9117C9.89637 40.9117 10.6178 41.6353 11.1974 42.848C11.4214 43.3145 11.9786 43.5125 12.4434 43.2872C12.9081 43.0629 13.1032 42.5016 12.8801 42.0342C11.9552 40.0989 10.6719 39.0345 9.26732 39.0345C6.4422 39.0345 4.31146 43.3116 4.31146 48.9835C4.2424 49.5777 4.61759 50.1971 5.25317 50.1849C5.80475 50.1887 6.24527 49.6959 6.18181 49.144Z" stroke="white" stroke-width="0.4" mask="url(#path-1-inside-1_103_5641)"/>
<path d="M14.2232 48.9826C14.0795 47.9014 14.5882 45.6666 13.0342 45.7145C12.5228 45.7792 12.1597 46.2485 12.225 46.7629C12.9082 51.0813 11.2395 57.0977 9.26832 57.0545C8.63553 57.0545 7.91876 56.3383 7.34851 55.1388C6.80066 54.0341 5.15337 54.8272 5.66389 55.9488C6.57853 57.872 7.85902 58.9317 9.26832 58.9317C12.0934 58.9317 14.2242 54.6545 14.2242 48.9826H14.2232Z" stroke="white" stroke-width="0.4" mask="url(#path-1-inside-1_103_5641)"/>
<path d="M26.0642 32.9891C28.5823 32.9891 30.5487 29.6365 30.8455 24.8356C30.8773 24.3175 30.4862 23.8726 29.972 23.8397C29.4334 23.8003 29.0144 24.2011 28.9817 24.7183C28.7447 28.5421 27.2822 31.1119 26.0633 31.1119C24.6671 31.1119 23.1056 27.917 23.1056 23.6408C23.1056 19.3646 24.6671 16.1696 26.0633 16.1696C26.7465 16.1696 27.5248 17.0181 28.0932 18.3847C28.2939 18.8643 28.8408 19.0877 29.3149 18.8887C29.7909 18.6878 30.0149 18.1378 29.8161 17.6601C28.9117 15.4882 27.5799 14.2915 26.0633 14.2915C19.6655 14.4323 19.6683 32.8493 26.0633 32.9882L26.0642 32.9891Z" stroke="white" stroke-width="0.4" mask="url(#path-1-inside-1_103_5641)"/>
<path d="M100.731 33.9652H92.5902C97.6002 26.158 94.9916 8.77907 85.7986 8.62326H59.7985L61.2386 5.07633C61.2517 5.04254 61.2722 5.01345 61.2825 4.97872C62.5499 0.930586 54.2808 -2.04756 52.5458 1.75467C50.4953 5.04724 49.1859 7.19285 48.3394 8.62326H26.0679C16.8142 8.81849 14.3129 26.1993 19.2464 33.9652H9.26843C-3.07641 34.4035 -3.10254 63.5495 9.26843 64C24.1509 63.9887 100.732 64 100.732 64C113.071 63.5682 113.108 34.4166 100.731 33.9652ZM52.7446 15.2309L54.4404 12.1223C55.0116 11.0289 53.4129 10.1503 52.8034 11.2185L50.892 14.7203C49.4724 14.0934 48.7249 13.1163 48.6735 11.8023C49.0394 11.0533 50.9639 7.86488 52.9835 4.59484C54.026 6.10221 56.5609 7.15343 58.4816 6.89719C57.8759 8.39049 56.1101 12.739 55.4792 14.2942C55.2496 14.9606 54.1567 15.3886 52.7437 15.23L52.7446 15.2309ZM55.8217 1.86636C57.2842 1.73308 59.8508 3.26673 59.5185 4.34705C59.2703 5.03316 57.9356 5.29878 56.4134 4.79288C54.082 3.96035 53.1609 1.90484 55.8217 1.86636ZM47.2633 10.5004C46.8078 11.347 46.805 11.4935 46.805 11.6314C46.6035 14.771 49.9083 17.0377 53.0405 17.1456C53.1263 17.1456 53.2915 17.1485 53.3727 17.1456H77.0759C78.2892 17.1297 78.3144 15.2901 77.0759 15.2685H57.0835C57.1339 15.1662 57.1899 15.0667 57.2273 14.9569L59.0369 10.5004H85.7995C89.8472 10.5004 93.2659 16.5177 93.2659 23.6407C93.2659 27.6541 92.1796 31.4638 90.3587 33.9652H41.0008C38.9298 33.9652 37.0427 35.0107 35.5102 36.7809H30.6449C36.94 31.4507 36.9363 15.826 30.6449 10.5004H47.2642H47.2633ZM48.4663 48.9826C48.4663 56.1055 45.0476 62.1228 40.9999 62.1228C36.9521 62.1228 33.5334 56.1055 33.5334 48.9826C33.5334 41.8596 36.9521 35.8423 40.9999 35.8423C45.0476 35.8423 48.4663 41.8596 48.4663 48.9826ZM26.067 10.5004C30.1147 10.5004 33.5334 16.5177 33.5334 23.6407C33.5334 30.7636 30.1147 36.7809 26.067 36.7809C22.0192 36.7809 18.6006 30.7636 18.6006 23.6407C18.6006 16.5177 22.0192 10.5004 26.067 10.5004ZM1.80105 48.9826C1.80105 41.8596 5.21975 35.8423 9.26749 35.8423C13.3152 35.8423 16.7339 41.8596 16.7339 48.9826C16.7339 56.1055 13.3152 62.1228 9.26749 62.1228C5.21975 62.1228 1.80105 56.1055 1.80105 48.9826ZM13.8444 62.1228C20.1396 56.7926 20.1358 41.1679 13.8444 35.8423H20.5764C22.1088 37.6125 23.996 38.6581 26.067 38.6581H34.1784C30.2174 44.9739 31.0257 57.6138 36.423 62.1228H13.8444ZM100.731 62.1228H45.5768C51.872 56.7926 51.8682 41.1679 45.5768 35.8423H100.731C104.779 35.8423 108.198 41.8596 108.198 48.9826C108.198 56.1055 104.779 62.1228 100.731 62.1228Z" stroke="white" stroke-width="0.4" mask="url(#path-1-inside-1_103_5641)"/>
<path d="M36.1711 50.6815C36.3213 51.9045 38.1403 51.7064 38.0265 50.4759C37.5066 46.5705 39.2192 40.9981 41 41.1736C42.4363 41.1736 44.0426 44.5131 44.0426 48.9827C44.0426 53.4522 42.4363 56.7917 41 56.7917C40.3588 56.7917 39.643 56.0709 39.083 54.8648C38.5454 53.7563 36.8916 54.5325 37.3918 55.6588C38.2915 57.5998 39.573 58.6689 41 58.6689C43.799 58.6689 45.9092 54.5044 45.9092 48.9827C45.9092 43.4609 43.799 39.2964 41 39.2964C37.7073 39.1115 35.5597 45.5455 36.1711 50.6815Z" stroke="white" stroke-width="0.4" mask="url(#path-1-inside-1_103_5641)"/>
<path d="M100.732 56.4913H90.2692C89.0456 56.511 89.04 58.3478 90.2692 58.3685H100.732C101.955 58.3488 101.961 56.512 100.732 56.4913Z" stroke="white" stroke-width="0.4" mask="url(#path-1-inside-1_103_5641)"/>
<path d="M83.8384 56.4913H54.0659C52.8489 56.5082 52.8311 58.3469 54.0659 58.3685H83.8384C85.0554 58.3516 85.0731 56.5129 83.8384 56.4913Z" stroke="white" stroke-width="0.4" mask="url(#path-1-inside-1_103_5641)"/>
<path d="M100.731 50.8598H75.0653C73.8473 50.8776 73.8315 52.7163 75.0653 52.737H100.731C101.949 52.7191 101.965 50.8804 100.731 50.8598Z" stroke="white" stroke-width="0.4" mask="url(#path-1-inside-1_103_5641)"/>
<path d="M54.0661 52.737H66.1525C67.376 52.7182 67.3825 50.8804 66.1525 50.8598H54.0661C52.8426 50.8785 52.836 52.7163 54.0661 52.737Z" stroke="white" stroke-width="0.4" mask="url(#path-1-inside-1_103_5641)"/>
<path d="M103.531 45.2282H94.2356C93.7195 45.2282 93.3023 45.6478 93.3023 46.1668C93.3023 46.6859 93.7195 47.1054 94.2356 47.1054H103.531C104.756 47.0857 104.761 45.2489 103.531 45.2282Z" stroke="white" stroke-width="0.4" mask="url(#path-1-inside-1_103_5641)"/>
<path d="M54.0661 47.1054H62.1579C63.3824 47.0857 63.3871 45.2489 62.1579 45.2282H54.0661C52.8416 45.248 52.837 47.0848 54.0661 47.1054Z" stroke="white" stroke-width="0.4" mask="url(#path-1-inside-1_103_5641)"/>
<path d="M86.7223 45.2282H68.7935C68.2774 45.2282 67.8602 45.6478 67.8602 46.1668C67.8602 46.6859 68.2774 47.1054 68.7935 47.1054H86.7223C87.943 47.0867 87.9533 45.2489 86.7223 45.2282Z" stroke="white" stroke-width="0.4" mask="url(#path-1-inside-1_103_5641)"/>
<path d="M64.8216 41.4739H87.4431C88.6629 41.4561 88.676 39.6174 87.4431 39.5967H64.8216C63.6018 39.6145 63.5887 41.4532 64.8216 41.4739Z" stroke="white" stroke-width="0.4" mask="url(#path-1-inside-1_103_5641)"/>
<path d="M87.3947 28.3336H60.3288C59.1108 28.3515 59.095 30.1902 60.3288 30.2108H87.3947C88.6126 30.193 88.6285 28.3543 87.3947 28.3336Z" stroke="white" stroke-width="0.4" mask="url(#path-1-inside-1_103_5641)"/>
<path d="M52.1996 28.3336H40.7293C39.5057 28.3534 39.5001 30.1902 40.7293 30.2108H52.1996C53.4232 30.1911 53.4288 28.3543 52.1996 28.3336Z" stroke="white" stroke-width="0.4" mask="url(#path-1-inside-1_103_5641)"/>
<path d="M76.0549 23.6407H88.3036C89.5271 23.6219 89.5337 21.7842 88.3036 21.7635H76.0549C74.8313 21.7823 74.8248 23.6201 76.0549 23.6407Z" stroke="white" stroke-width="0.4" mask="url(#path-1-inside-1_103_5641)"/>
<path d="M39.7961 23.6407H68.9619C70.1789 23.6229 70.1966 21.7851 68.9619 21.7635H39.7961C38.5791 21.7814 38.5613 23.6191 39.7961 23.6407Z" stroke="white" stroke-width="0.4" mask="url(#path-1-inside-1_103_5641)"/>
<path d="M82.1492 17.1456H84.5944C85.8208 17.125 85.8217 15.2891 84.5944 15.2685H82.1492C80.9228 15.2891 80.9219 17.125 82.1492 17.1456Z" stroke="white" stroke-width="0.4" mask="url(#path-1-inside-1_103_5641)"/>
<path d="M22.1861 44.0944H28.4514C29.6768 44.0747 29.6796 42.2379 28.4514 42.2172H22.1861C20.9607 42.237 20.9579 44.0738 22.1861 44.0944Z" stroke="white" stroke-width="0.4" mask="url(#path-1-inside-1_103_5641)"/>
<path d="M22.1861 50.6645H27.6189C28.8443 50.6448 28.8471 48.808 27.6189 48.7874H22.1861C20.9607 48.8071 20.9579 50.6439 22.1861 50.6645Z" stroke="white" stroke-width="0.4" mask="url(#path-1-inside-1_103_5641)"/>
<path d="M29.3383 56.0539H20.5232C19.2987 56.0736 19.294 57.9104 20.5232 57.931H29.3383C30.5628 57.9113 30.5674 56.0745 29.3383 56.0539Z" stroke="white" stroke-width="0.4" mask="url(#path-1-inside-1_103_5641)"/>
<path d="M41.9331 48.4617V46.1668C41.9331 45.6478 41.5159 45.2282 40.9998 45.2282C40.4837 45.2282 40.0665 45.6478 40.0665 46.1668V48.4617C40.0871 49.695 41.9126 49.6959 41.9331 48.4617Z" stroke="white" stroke-width="0.4" mask="url(#path-1-inside-1_103_5641)"/>
</svg>
