<svg width="20" height="16" viewBox="0 0 20 16" fill="none" xmlns="http://www.w3.org/2000/svg">
<path fill-rule="evenodd" clip-rule="evenodd" d="M16.625 0H2.625C1.17955 0 0.00874966 1.17893 0.00874966 2.625L0 13.1243C0 14.5707 1.17925 15.75 2.625 15.75H16.625C18.0707 15.75 19.25 14.5707 19.25 13.125V2.625C19.25 1.17925 18.0707 0 16.625 0ZM3.92356 5.25013C3.50963 5.00073 3.37626 4.46301 3.62566 4.04909C3.87506 3.63517 4.41278 3.50179 4.8267 3.75119L9.59935 6.62684L14.5791 3.62639C14.9937 3.37659 15.5323 3.51017 15.7821 3.92476C16.0313 4.33841 15.899 4.87572 15.4862 5.12628L9.63371 8.67826L9.62824 8.68735L3.92356 5.25013Z" fill="#141312"/>
<path fill-rule="evenodd" clip-rule="evenodd" d="M16.625 0H2.625C1.17955 0 0.00874966 1.17893 0.00874966 2.625L0 13.1243C0 14.5707 1.17925 15.75 2.625 15.75H16.625C18.0707 15.75 19.25 14.5707 19.25 13.125V2.625C19.25 1.17925 18.0707 0 16.625 0ZM3.92356 5.25013C3.50963 5.00073 3.37626 4.46301 3.62566 4.04909C3.87506 3.63517 4.41278 3.50179 4.8267 3.75119L9.59935 6.62684L14.5791 3.62639C14.9937 3.37659 15.5323 3.51017 15.7821 3.92476C16.0313 4.33841 15.899 4.87572 15.4862 5.12628L9.63371 8.67826L9.62824 8.68735L3.92356 5.25013Z" fill="#141312"/>
</svg>
