<svg width="32" height="45" viewBox="0 0 32 45" fill="none" xmlns="http://www.w3.org/2000/svg">
<path fill-rule="evenodd" clip-rule="evenodd" d="M15.75 0C7.0425 0 0 7.0425 0 15.75C0 27.5625 15.75 45 15.75 45C15.75 45 31.5 27.5625 31.5 15.75C31.5 7.0425 24.4575 0 15.75 0ZM15.75 21.375C12.645 21.375 10.125 18.855 10.125 15.75C10.125 12.645 12.645 10.125 15.75 10.125C18.855 10.125 21.375 12.645 21.375 15.75C21.375 18.855 18.855 21.375 15.75 21.375Z" fill="#799A0D"/>
<path fill-rule="evenodd" clip-rule="evenodd" d="M15.75 0C7.0425 0 0 7.0425 0 15.75C0 27.5625 15.75 45 15.75 45C15.75 45 31.5 27.5625 31.5 15.75C31.5 7.0425 24.4575 0 15.75 0ZM15.75 21.375C12.645 21.375 10.125 18.855 10.125 15.75C10.125 12.645 12.645 10.125 15.75 10.125C18.855 10.125 21.375 12.645 21.375 15.75C21.375 18.855 18.855 21.375 15.75 21.375Z" fill="#799A0D"/>
</svg>
