<svg width="18" height="18" viewBox="0 0 18 18" fill="none" xmlns="http://www.w3.org/2000/svg">
<path d="M9 0C13.9706 0 18 4.02959 18 9C18 13.9704 13.9706 18 9 18C4.02938 18 0 13.9704 0 9C0 4.02959 4.02938 0 9 0ZM9 3.59995C8.66853 3.59995 8.40005 3.86864 8.40005 4.19989V8.7562L5.60641 11.5498C5.37204 11.7842 5.37204 12.1592 5.60641 12.3936C5.84079 12.628 6.21579 12.628 6.45016 12.3936L9.33755 9.49677C9.48006 9.36033 9.5757 9.23205 9.59997 8.99998V4.19987C9.59997 3.8684 9.33127 3.59992 9.00002 3.59992L9 3.59995Z" fill="#141312"/>
</svg>
