<svg width="20" height="20" viewBox="0 0 20 20" fill="none" xmlns="http://www.w3.org/2000/svg">
<path d="M9.99951 20C4.47666 20 -0.000488281 15.5228 -0.000488281 10C-0.000488281 4.47715 4.47666 0 9.99951 0C15.5224 0 19.9995 4.47715 19.9995 10C19.9935 15.5203 15.5198 19.9939 9.99951 20ZM9.99951 2.22222C5.58123 2.22222 2.22173 5.58172 2.22173 10C2.22173 14.4183 5.58123 17.7778 9.99951 17.7778C14.4178 17.7778 17.7773 14.4183 17.7773 10C17.7723 5.58378 14.4157 2.22718 9.99951 2.22222ZM15.5551 11.1111H8.8884V5.55556H11.1106V8.88889H15.5551V11.1111Z" fill="#1C1C1C"/>
</svg>
