<svg width="40" height="40" viewBox="0 0 40 40" fill="none" xmlns="http://www.w3.org/2000/svg">
<path fill-rule="evenodd" clip-rule="evenodd" d="M0.999512 20C0.999512 30.4934 9.5061 39 19.9995 39C30.4929 39 38.9995 30.4934 38.9995 20C38.9995 9.50659 30.4929 1 19.9995 1C9.5061 1 0.999512 9.50659 0.999512 20ZM19.9995 0C8.95382 0 -0.000488281 8.95431 -0.000488281 20C-0.000488281 31.0457 8.95382 40 19.9995 40C31.0452 40 39.9995 31.0457 39.9995 20C39.9995 8.95431 31.0452 0 19.9995 0Z" fill="#1C1C1C"/>
<path fill-rule="evenodd" clip-rule="evenodd" d="M26.6897 21.487H25.0012L28.453 26.9112H21.5764V29.7H17.4226V26.9114H10.546L13.9978 21.4872H12.3094L15.7611 16.063H14.0875L19.4995 7.55877L24.9115 16.0628H23.2379L26.6897 21.487ZM23.0626 15.0295L19.4995 9.43051L15.9364 15.0295H17.61L14.1581 20.4536H15.8466L12.3948 25.8777H18.4157V28.6665H20.5832V25.8777H26.6041L23.1523 20.4536H24.8408L21.389 15.0295H23.0626Z" fill="#1C1C1C"/>
</svg>
