<svg width="20" height="20" viewBox="0 0 20 20" fill="none" xmlns="http://www.w3.org/2000/svg">
<path d="M15.3635 20H15.334C11.2914 19.9005 7.43357 18.2863 4.52469 15.4772C1.71451 12.5709 0.0993971 8.71455 -0.000371712 4.67309C-0.0063249 4.10694 0.215962 3.56223 0.616404 3.16197L3.47238 0.308102C3.8833 -0.102701 4.54942 -0.102701 4.96034 0.308102L9.16959 4.51735C9.58039 4.92827 9.58039 5.59439 9.16959 6.00531L7.4901 7.68165C7.80159 8.84542 8.37538 9.92243 9.16748 10.8302C10.0736 11.6225 11.1492 12.1967 12.3118 12.5086L13.9955 10.8312C14.4064 10.4204 15.0725 10.4204 15.4835 10.8312L19.6927 15.0405C20.1035 15.4514 20.1035 16.1175 19.6927 16.5284L16.8367 19.3833C16.4473 19.7768 15.9171 19.9988 15.3635 20ZM4.21426 2.54111H4.20899L2.10437 4.64994C2.19018 8.1422 3.58426 11.4749 6.01055 13.9881C8.52392 16.4136 11.856 17.8075 15.3477 17.8943L17.4597 15.7844L14.7321 13.0642L13.3715 14.4238C13.1768 14.6206 12.9117 14.7316 12.6348 14.7321C12.5609 14.7322 12.4872 14.7244 12.4149 14.709C10.6614 14.3211 9.0332 13.4994 7.67952 12.3192C6.4993 10.9655 5.67761 9.33732 5.28972 7.58378C5.21654 7.23522 5.32464 6.8733 5.577 6.62197L6.93658 5.26133L4.21426 2.54111Z" fill="#1C1C1C"/>
</svg>
