<svg width="20" height="20" viewBox="0 0 20 20" fill="none" xmlns="http://www.w3.org/2000/svg">
<path d="M10 20C4.47715 20 0 15.5228 0 10C0 4.47715 4.47715 0 10 0C15.5228 0 20 4.47715 20 10C19.9939 15.5203 15.5203 19.9939 10 20ZM10 2.22222C5.58172 2.22222 2.22222 5.58172 2.22222 10C2.22222 14.4183 5.58172 17.7778 10 17.7778C14.4183 17.7778 17.7778 14.4183 17.7778 10C17.7728 5.58378 14.4162 2.22718 10 2.22222ZM15.5556 11.1111H8.88889V5.55556H11.1111V8.88889H15.5556V11.1111Z" fill="white"/>
</svg>
