<svg width="15" height="15" viewBox="0 0 15 15" fill="none" xmlns="http://www.w3.org/2000/svg">
<path fill-rule="evenodd" clip-rule="evenodd" d="M11.1074 10.0607C12.0309 8.86965 12.4661 7.37139 12.3245 5.87071C12.183 4.37004 11.4752 2.97968 10.3453 1.9825C9.21542 0.985317 7.74821 0.456217 6.24219 0.502839C4.73617 0.54946 3.30447 1.1683 2.23835 2.23346C1.1713 3.29936 0.550686 4.73219 0.50297 6.23996C0.455254 7.74772 0.984029 9.21696 1.98154 10.3482C2.97905 11.4795 4.37022 12.1877 5.87156 12.3286C7.3729 12.4694 8.87141 12.0322 10.0617 11.1061L10.0936 11.1394L13.2351 14.2829C13.3039 14.3517 13.3856 14.4063 13.4755 14.4436C13.5654 14.4808 13.6617 14.5 13.759 14.5C13.8563 14.5 13.9527 14.4808 14.0426 14.4436C14.1325 14.4063 14.2142 14.3517 14.283 14.2829C14.3518 14.2141 14.4064 14.1323 14.4436 14.0424C14.4808 13.9525 14.5 13.8561 14.5 13.7587C14.5 13.6614 14.4808 13.565 14.4436 13.475C14.4064 13.3851 14.3518 13.3034 14.283 13.2346L11.1407 10.0918C11.1299 10.0811 11.1188 10.0708 11.1074 10.0607V10.0607ZM9.56999 3.28179C9.98811 3.69332 10.3207 4.1836 10.5484 4.72435C10.7762 5.2651 10.8947 5.84561 10.8971 6.4324C10.8995 7.01919 10.7857 7.60065 10.5623 8.14324C10.339 8.68582 10.0104 9.1788 9.59568 9.59372C9.18092 10.0087 8.68814 10.3373 8.14577 10.5608C7.6034 10.7842 7.02217 10.898 6.43561 10.8957C5.84906 10.8933 5.26878 10.7747 4.72824 10.5469C4.18771 10.319 3.69763 9.98632 3.28625 9.56802C2.46416 8.7321 2.00555 7.60506 2.01033 6.4324C2.0151 5.25975 2.48287 4.13648 3.31174 3.30728C4.14061 2.47808 5.26342 2.01013 6.43561 2.00535C7.6078 2.00058 8.73439 2.45937 9.56999 3.28179Z" fill="black"/>
</svg>
