<svg width="41" height="40" viewBox="0 0 41 40" fill="none" xmlns="http://www.w3.org/2000/svg">
<path fill-rule="evenodd" clip-rule="evenodd" d="M1.5 20C1.5 30.4934 10.0066 39 20.5 39C30.9934 39 39.5 30.4934 39.5 20C39.5 9.50659 30.9934 1 20.5 1C10.0066 1 1.5 9.50659 1.5 20ZM20.5 0C9.45431 0 0.5 8.95431 0.5 20C0.5 31.0457 9.45431 40 20.5 40C31.5457 40 40.5 31.0457 40.5 20C40.5 8.95431 31.5457 0 20.5 0Z" fill="white"/>
<path fill-rule="evenodd" clip-rule="evenodd" d="M27.1902 21.487H25.5017L28.9535 26.9112H22.0769V29.7H17.923V26.9114H11.0465L14.4983 21.4872H12.8098L16.2616 16.063H14.588L20 7.55877L25.412 16.0628H23.7384L27.1902 21.487ZM23.5631 15.0295L20 9.43051L16.4368 15.0295H18.1105L14.6586 20.4536H16.3471L12.8953 25.8777H18.9162V28.6665H21.0837V25.8777H27.1046L23.6528 20.4536H25.3413L21.8895 15.0295H23.5631Z" fill="white"/>
</svg>
