<svg width="21" height="20" viewBox="0 0 21 20" fill="none" xmlns="http://www.w3.org/2000/svg">
<path d="M15.364 20H15.3345C11.2919 19.9005 7.43405 18.2863 4.52518 15.4772C1.715 12.5709 0.0998854 8.71455 0.000116569 4.67309C-0.00583661 4.10694 0.21645 3.56223 0.616892 3.16197L3.47286 0.308102C3.88379 -0.102701 4.54991 -0.102701 4.96083 0.308102L9.17008 4.51735C9.58088 4.92827 9.58088 5.59439 9.17008 6.00531L7.49059 7.68165C7.80208 8.84542 8.37587 9.92243 9.16797 10.8302C10.0741 11.6225 11.1497 12.1967 12.3123 12.5086L13.996 10.8312C14.4069 10.4204 15.073 10.4204 15.4839 10.8312L19.6932 15.0405C20.104 15.4514 20.104 16.1175 19.6932 16.5284L16.8372 19.3833C16.4478 19.7768 15.9176 19.9988 15.364 20ZM4.21474 2.54111H4.20948L2.10486 4.64994C2.19067 8.1422 3.58475 11.4749 6.01104 13.9881C8.52441 16.4136 11.8565 17.8075 15.3482 17.8943L17.4602 15.7844L14.7326 13.0642L13.372 14.4238C13.1773 14.6206 12.9122 14.7316 12.6353 14.7321C12.5614 14.7322 12.4877 14.7244 12.4154 14.709C10.6619 14.3211 9.03368 13.4994 7.68 12.3192C6.49979 10.9655 5.6781 9.33732 5.29021 7.58378C5.21703 7.23522 5.32513 6.8733 5.57749 6.62197L6.93707 5.26133L4.21474 2.54111Z" fill="white"/>
</svg>
