<svg width="32" height="43" viewBox="0 0 32 43" fill="none" xmlns="http://www.w3.org/2000/svg">
<path d="M12.4217 19.6733C12.7425 19.9704 13.2634 19.7405 13.2619 19.3032C13.2532 16.6977 13.2557 14.6209 13.2585 12.2725V12.2712V12.27V12.2687C13.2601 10.9205 13.2619 9.48253 13.2616 7.80351V7.79447C13.2614 6.01336 13.2611 4.26204 13.26 2.57325C13.26 2.3492 13.2535 2.12456 13.2471 1.89989V1.89986V1.89982V1.89979V1.89976C13.2363 1.52525 13.2255 1.15065 13.2447 0.778482C13.2753 0.185083 12.9933 -0.00438821 12.414 0.0081044C11.4587 0.0289254 10.5035 0.0393354 9.55038 0.00185756C8.91644 -0.0231277 8.65631 0.201739 8.67599 0.809713C8.693 1.36608 8.68794 1.92332 8.68289 2.4803V2.48041V2.48067C8.68015 2.78234 8.67741 3.08393 8.67817 3.38527C8.67896 4.21073 8.67995 5.06553 8.68097 5.93914L8.68246 7.17725V7.17749V7.17769V7.17785C8.68634 10.3428 8.68913 12.6248 8.67957 15.7681C8.67872 16.0478 8.79499 16.3158 9.00027 16.5059L12.4217 19.6733ZM9.68808 42.9173C8.87709 42.9694 8.66068 42.6488 8.66942 41.9242V30.3941C8.66942 29.956 9.19278 29.7298 9.51192 30.0298L13.0134 33.3221C13.1904 33.4908 13.2473 33.9148 13.2495 34.1854C13.2563 34.8562 13.2523 36.2246 13.248 37.6697V37.6703V37.6709V37.6714C13.2427 39.4735 13.2371 41.3943 13.2516 42.2296C13.2604 42.771 13.0527 43 12.504 43C12.1301 42.9983 11.7496 42.975 11.3682 42.9517H11.3681H11.368H11.3679H11.3679H11.3678H11.3678C10.8041 42.9172 10.2382 42.8826 9.68808 42.9173ZM3.70289 14.607C3.19575 14.0927 2.79791 14.0657 2.29295 14.6049C1.67651 15.2629 1.01415 15.8854 0.349617 16.5017C-0.0438595 16.8661 -0.168459 17.118 0.310268 17.574L17.9649 34.5183C18.236 34.7869 18.4473 35.3114 18.4517 35.6841C18.4801 37.7641 18.456 39.8462 18.4079 41.9283C18.3905 42.6821 18.7009 42.9569 19.4725 42.9153C20.0209 42.8873 20.5713 42.8941 21.1223 42.9009L21.1235 42.901H21.1238H21.1242C21.3918 42.9043 21.6596 42.9076 21.9274 42.9069C22.9242 42.9069 22.9679 42.8674 22.9679 41.8784V29.8542C22.9679 29.473 22.9644 29.0916 22.9609 28.7102V28.7102V28.7101V28.7101C22.9521 27.7377 22.9433 26.7653 22.9919 25.7962C23.0116 25.3798 23.2236 24.878 23.5275 24.5803C25.8774 22.2629 28.2558 19.9726 30.6603 17.7073C31.1762 17.22 31.1828 16.889 30.6669 16.4351C29.9652 15.8188 29.2853 15.1775 28.6383 14.5112C28.2339 14.0969 27.9322 14.0532 27.4994 14.4821C26.3363 15.6347 25.0157 16.7589 23.8687 17.7226C23.5462 17.9936 23.0533 17.7684 23.0472 17.3472C22.9765 12.4324 22.9745 7.44413 22.9726 2.51334L22.9723 1.68211C22.9723 1.54072 22.973 1.41118 22.9736 1.29249L22.9736 1.29219C22.9775 0.593076 22.9793 0.27098 22.8199 0.125367C22.6837 0.000967249 22.4298 0.00537719 21.9591 0.0135546C21.7592 0.0170277 21.5202 0.0211804 21.2344 0.016433C20.9792 0.0121976 20.7236 0.0162333 20.468 0.0202677C20.0955 0.0261496 19.7231 0.032029 19.3523 0.0122687C18.6375 -0.0252091 18.3992 0.264203 18.4058 0.93464C18.4277 3.28965 18.4275 6.19252 18.4273 8.79555V8.79563V8.79571V8.79579V8.79764V8.79948C18.4272 9.55966 18.4271 10.2942 18.4276 10.9821V14.4175C18.4691 14.4175 18.4565 19.2944 18.4454 23.5935L18.4454 23.5946C18.442 24.8921 18.4388 26.1369 18.4372 27.1792C18.4366 27.6134 17.9204 27.8414 17.5987 27.5497C16.7617 26.7906 15.9225 26.0337 15.0831 25.2767L15.0827 25.2763L15.0823 25.2759L15.0822 25.2759C11.2202 21.7927 7.35614 18.3078 3.70289 14.607Z" fill="#799A0D"/>
<path d="M12.4217 19.6733C12.7425 19.9704 13.2634 19.7405 13.2619 19.3032C13.2532 16.6977 13.2557 14.6209 13.2585 12.2725V12.2712V12.27V12.2687C13.2601 10.9205 13.2619 9.48253 13.2616 7.80351V7.79447C13.2614 6.01336 13.2611 4.26204 13.26 2.57325C13.26 2.3492 13.2535 2.12456 13.2471 1.89989V1.89986V1.89982V1.89979V1.89976C13.2363 1.52525 13.2255 1.15065 13.2447 0.778482C13.2753 0.185083 12.9933 -0.00438821 12.414 0.0081044C11.4587 0.0289254 10.5035 0.0393354 9.55038 0.00185756C8.91644 -0.0231277 8.65631 0.201739 8.67599 0.809713C8.693 1.36608 8.68794 1.92332 8.68289 2.4803V2.48041V2.48067C8.68015 2.78234 8.67741 3.08393 8.67817 3.38527C8.67896 4.21073 8.67995 5.06553 8.68097 5.93914L8.68246 7.17725V7.17749V7.17769V7.17785C8.68634 10.3428 8.68913 12.6248 8.67957 15.7681C8.67872 16.0478 8.79499 16.3158 9.00027 16.5059L12.4217 19.6733ZM9.68808 42.9173C8.87709 42.9694 8.66068 42.6488 8.66942 41.9242V30.3941C8.66942 29.956 9.19278 29.7298 9.51192 30.0298L13.0134 33.3221C13.1904 33.4908 13.2473 33.9148 13.2495 34.1854C13.2563 34.8562 13.2523 36.2246 13.248 37.6697V37.6703V37.6709V37.6714C13.2427 39.4735 13.2371 41.3943 13.2516 42.2296C13.2604 42.771 13.0527 43 12.504 43C12.1301 42.9983 11.7496 42.975 11.3682 42.9517H11.3681H11.368H11.3679H11.3679H11.3678H11.3678C10.8041 42.9172 10.2382 42.8826 9.68808 42.9173ZM3.70289 14.607C3.19575 14.0927 2.79791 14.0657 2.29295 14.6049C1.67651 15.2629 1.01415 15.8854 0.349617 16.5017C-0.0438595 16.8661 -0.168459 17.118 0.310268 17.574L17.9649 34.5183C18.236 34.7869 18.4473 35.3114 18.4517 35.6841C18.4801 37.7641 18.456 39.8462 18.4079 41.9283C18.3905 42.6821 18.7009 42.9569 19.4725 42.9153C20.0209 42.8873 20.5713 42.8941 21.1223 42.9009L21.1235 42.901H21.1238H21.1242C21.3918 42.9043 21.6596 42.9076 21.9274 42.9069C22.9242 42.9069 22.9679 42.8674 22.9679 41.8784V29.8542C22.9679 29.473 22.9644 29.0916 22.9609 28.7102V28.7102V28.7101V28.7101C22.9521 27.7377 22.9433 26.7653 22.9919 25.7962C23.0116 25.3798 23.2236 24.878 23.5275 24.5803C25.8774 22.2629 28.2558 19.9726 30.6603 17.7073C31.1762 17.22 31.1828 16.889 30.6669 16.4351C29.9652 15.8188 29.2853 15.1775 28.6383 14.5112C28.2339 14.0969 27.9322 14.0532 27.4994 14.4821C26.3363 15.6347 25.0157 16.7589 23.8687 17.7226C23.5462 17.9936 23.0533 17.7684 23.0472 17.3472C22.9765 12.4324 22.9745 7.44413 22.9726 2.51334L22.9723 1.68211C22.9723 1.54072 22.973 1.41118 22.9736 1.29249L22.9736 1.29219C22.9775 0.593076 22.9793 0.27098 22.8199 0.125367C22.6837 0.000967249 22.4298 0.00537719 21.9591 0.0135546C21.7592 0.0170277 21.5202 0.0211804 21.2344 0.016433C20.9792 0.0121976 20.7236 0.0162333 20.468 0.0202677C20.0955 0.0261496 19.7231 0.032029 19.3523 0.0122687C18.6375 -0.0252091 18.3992 0.264203 18.4058 0.93464C18.4277 3.28965 18.4275 6.19252 18.4273 8.79555V8.79563V8.79571V8.79579V8.79764V8.79948C18.4272 9.55966 18.4271 10.2942 18.4276 10.9821V14.4175C18.4691 14.4175 18.4565 19.2944 18.4454 23.5935L18.4454 23.5946C18.442 24.8921 18.4388 26.1369 18.4372 27.1792C18.4366 27.6134 17.9204 27.8414 17.5987 27.5497C16.7617 26.7906 15.9225 26.0337 15.0831 25.2767L15.0827 25.2763L15.0823 25.2759L15.0822 25.2759C11.2202 21.7927 7.35614 18.3078 3.70289 14.607Z" stroke="white"/>
</svg>
